<?xml version="1.0" encoding="UTF-8"?> <svg xmlns="http://www.w3.org/2000/svg" viewBox="0 0 1000 1000"> <defs> <style>.cls-1{opacity:0.42;}.cls-2{fill:#dce4ea;}.cls-3{fill:#fff;}.cls-4{fill:#298aff;}.cls-11,.cls-5{fill:#ffea55;}.cls-10,.cls-5,.cls-6,.cls-8{stroke:#000;stroke-miterlimit:10;stroke-width:0.52px;}.cls-6{fill:#1a1b21;}.cls-7{fill:#070707;}.cls-8{fill:#1c1c23;}.cls-10,.cls-9{fill:#7d7def;}</style> </defs> <g id="Layer_9" data-name="Layer 9"> <ellipse class="cls-2" cx="505" cy="889.46" rx="447.1" ry="55.94"></ellipse> </g> <g id="Layer_10" data-name="Layer 10"> <path class="cls-3" d="M632.86,892s-10.69-10.63-18.05-8.14-15.12,7.28-16.59,9.72-5.49,5.72-5.49,5.72l2,6.66s17.26.57,25.68-1.67A62.18,62.18,0,0,1,634.76,902s10.07-1.28,15.71-1.27,22,.75,27,.19a82.25,82.25,0,0,0,11.09-2.32s-3.37-7-4.09-7.3-3,2-7.09,2.74-15.62-1.17-22.78-1.14-19.86,1.93-19.86,1.93Z"></path> <path class="cls-3" d="M772.74,884.8s-11.09.37-15.84,5.45a26.21,26.21,0,0,0-6.08,10.37s-.39,1.22,5.18,3,19.6-.82,19.6-.82l17.53-3.41,9.48-37,8.24-7.93c.42-.41,3.93-4.31,3.55-6.59s-4.54-8.41-5-9-5.22,1.23-5.22,1.23Z"></path> <path class="cls-3" d="M519.91,238.23c-.1-.59-5.19-20.51-10.67-30.85s-10.77-13.35-11.9-14.16-7.79-5.94-7.79-5.94l-.9-3.52,13.7,6.91s-1.54-7.19-5-11.2-7.09-7.62-6.1-9.75,1.14-2.75,2.07-2.86,8.85,5.74,10.92,9.09a64.68,64.68,0,0,0,5.61,7.34l-7.4-24.8,2.93-.67s3.21,1.79,5.67,8S518,181.27,518,181.27s1.93-1.77.75-5.9-4-12.36-4.24-16a17.53,17.53,0,0,1,.71-6.4s3.77,2.32,5.44,8.41,6.11,18.48,7.63,22.35,5.29,13.52,5.29,13.52.64,4.49,3.2,1.26,7.63-13.87,9.51-15.81,3.42-3.88,4.41-.9S548,191.37,545.9,195s-6.85,13.62-7.1,16.49S541,228.64,542.2,233s10.37,34.23,11.75,38.29,7,16.79,7,16.79l2,3s10.42-3.2,11.82-3.83,0-7.95,0-7.95l9.53,41.12s-15.12,8.21-18.36,9-25.16,2.53-28.47-.56S519.91,238.23,519.91,238.23Z"></path> <path class="cls-3" d="M650,252.05c.36-1.22,3.1-15,3.1-15a22.6,22.6,0,0,1-9.27-12.2c-2.84-8.61-5.45-16.19-5.45-16.19s-.18,4.36-2.54,2.68-7.64-12.31-7.48-15.72,3.57-8,3.57-8l5.25-.31-.68-11.69,4.23-11.34,14.92-5.87,4.06,12.13,31.48-2.25,10.93,11.83v10.37l8.65-4.5a14.93,14.93,0,0,0,.35,5c.65,2,.4,4.1,0,8.43s-1.37,8.49-2.74,9.87-6.26.39-6.26.39-1.28,4.78-2.35,7.72-7.8,13.77-7.8,13.77l2.84,16.22a59.29,59.29,0,0,1-15.92,18c-10.58,7.81-14.08,10.48-16.43,10.2s-3.24.56-7.4-10S650,252.05,650,252.05Z"></path> <path class="cls-3" d="M772.54,282.73l15,3.31,28.28-69a14.35,14.35,0,0,0-1.11-3.43c-.89-2-8.49-12.45-10.08-19.76s-2.4-13.5-.87-15,2.56.2,3.71,2.19,5,9,5.4,9.66,1,3.35,3,1.44,10.1-21,11.55-24.4,8.23-16.47,8.23-16.47,2.34-1.74,2.31,0-3.39,12.82-3.39,12.82-1.55,4.52-2.2,7.09a23.47,23.47,0,0,0-.38,6.17s3.79-7.52,4.87-10,5.4-9.37,6.55-10.15,3.55-1.78,3.7-.38-4.16,11.94-5.58,14.95-3.72,7.88-3.34,8.45.78,2.23,2.93-.12,7.81-9.77,9.4-11,7.77-4.36,7.25-1.71-9.33,19.14-9.33,19.14,4.36-2.26,6.8-3.13,9.3-2.61,9.75-1.85-.61,3.42-3.11,5.72-10.89,7.46-13.57,11.66-4.88,10.12-6.69,13.37-3.62,5.91-6.3,6a41.08,41.08,0,0,1-4.19,0s-3.79,40.87-8.89,61-13.32,46.09-13.32,46.09l.74,2.91s-.32,2.37-3.43,3.38-6.86,1-7.38-.77a7.69,7.69,0,0,0-2.5-3.22s-7-.57-10.11-1-22.93-6.67-22.93-6.67h-3.14l6.07-22.19Z"></path> </g> <g id="Layer_8" data-name="Layer 8"> <path class="cls-4" d="M593.38,488.27,577,678a6.32,6.32,0,0,0-2.77,5c-.28,3.56.94,10,2.77,11s.48,4.53.48,4.53,20.7,43.75,32.32,75.08,23.6,67.06,23.6,67.06l6.07,19,2.75,3.6,5.88,1,38.73-4.56S662.29,764.28,654.63,744s-20.28-58.8-20.28-58.8,1-26.48,3.56-38.58,4.55-19.65,4.55-19.65l19.83,49.95s-6.5,8.69-2.84,12.4a18.08,18.08,0,0,0,6.87,4.66l3.62-.48,43.77,85.07L747.8,838.8l8.41,10.9,3.58,2.34s16-5.92,24-10.3c19.73-10.8,17-15.39,17-15.39L721.3,681.45l.39-3.71-2.28-1.93.58-4.16-3.79-.86L711.45,649s-6.15-76.06-6-94.43.66-55.48.66-55.48-74.76-9.69-90.73-10.13C600,488.53,593.38,488.27,593.38,488.27Z"></path> </g> <g id="Layer_6" data-name="Layer 6"> <path class="cls-5" d="M583.3,487.33s12.85-108.74,18.05-133.72S610,312.05,610,312.05s-13,5.5-18.1,8.52-6.42,2.41-6.42,2.41l-10.72-43.65s3.13-3.22,10.47-6.62,22.47-9.86,30.4-12.42,26.06-7.45,26.06-7.45l3.09-.81s-.81-1.71.9-1.57,3.22.3,5.06,3.52,6.53,18.54,6.53,18.54,1.32,3.79,4.36,3.7,17.92-10.89,22.32-15.26,11.36-11.82,11.36-11.82a2.46,2.46,0,0,1,2.54-.26,2.37,2.37,0,0,1,1.58,2.18l60.05,20.4,14.3,4.55-15.58,45.93-26.37-2s-3.84,19.69-4.42,23.26-4.11,28.42-4.65,33.26-3.26,34.78-3.58,39.87-1.58,33.12-1.66,40.55.25,34.81.25,34.81l.66,9.09s-77.49-9.23-89.49-10.21S583.3,487.33,583.3,487.33Z"></path> <path class="cls-6" d="M652.67,864.35l-.18,12.12-30.43,6.71s4.55,3.64,7,5.63,7,5.63,7,5.63,12-2.19,18.6-1.5,20.1,3.35,23.89.77,6.07-3.75,4.93-6.34S669,861.76,669,861.76Z"></path> <path class="cls-6" d="M777.13,846.24s.09,19,0,24.13A89.68,89.68,0,0,1,776,881.8l-1.8,2.86s8,10.1,7.79,10.16a7.14,7.14,0,0,0,6.95-3.73c2.26-4.33,5.32-14.68,7.11-20.72s2-10,5-13.6,6-5.49,6.48-9.12,1.84-5.55-1.25-10.24a35.66,35.66,0,0,0-6.4-7.39Z"></path> </g> <g id="man"> <path d="M649.48,253.46a103,103,0,0,0,4.41,14.46c1.46,3.78,3,8.92,7.84,9,4.29.1,8.27-3.2,11.55-5.56a116.68,116.68,0,0,0,10.92-8.92,114.26,114.26,0,0,0,10.9-11.64c1-1.28-.78-3.13-1.83-1.83A113.32,113.32,0,0,1,675,266.9q-2.54,2-5.17,3.76a26.45,26.45,0,0,1-5.25,3.1c-1.72.68-3.81,1-5.24-.44s-2.12-4-2.86-5.88A104.35,104.35,0,0,1,652,252.77c-.37-1.63-2.87-.94-2.5.69Z"></path> <path d="M651.35,252.84a3.22,3.22,0,0,0-.46-1.43,4.31,4.31,0,0,0-1.06-1.07,7.62,7.62,0,0,0-2.08-1,3.17,3.17,0,0,0-3.29.37,2.11,2.11,0,0,0-.08,3.05,1.36,1.36,0,0,0,.92.38,1.31,1.31,0,0,0,.91-.38,1.29,1.29,0,0,0,0-1.83c-.17-.14,0,0,.06.11-.12-.17.1.32.06.13.1.41,0,.25,0,.14-.05.25-.05.32,0,.18v0c0-.21-.15.28,0,.11s-.08.07-.08.07.1-.1.12-.12c-.2.14-.24.18-.13.11l0,0c-.21.09-.24.11-.1.06l.08,0c-.21,0-.25,0-.11,0h.25l-.18,0a.92.92,0,0,0,.25.05,7.35,7.35,0,0,1,.91.28l.36.14c.13,0-.32-.14-.06,0l.17.09a5.57,5.57,0,0,1,.67.39c.11.07-.27-.23-.07-.05,0,.05.09.08.13.13a1.59,1.59,0,0,1,.13.13c.18.19-.12-.19-.06-.08a1.19,1.19,0,0,0,.09.15s.12.26,0,0,0,0,0,0,.06.37,0-.07a1.46,1.46,0,0,0,.38.91,1.29,1.29,0,0,0,.92.38,1.28,1.28,0,0,0,.92-.38,1.25,1.25,0,0,0,.38-.91Z"></path> <path d="M644.87,250.78a275.07,275.07,0,0,0-46.17,14.49q-11.09,4.59-21.75,10.12c-1.45.75-3.11,1.46-3.45,3.25s.45,3.84.8,5.54q1.29,6.29,2.75,12.53,3.3,14,7.51,27.81a1.31,1.31,0,0,0,1.9.78,232.61,232.61,0,0,1,25.61-13.64c1.52-.69.2-2.93-1.31-2.24a232.61,232.61,0,0,0-25.61,13.64l1.91.77q-3.55-11.7-6.48-23.57-1.46-5.88-2.73-11.8-.65-3-1.24-5.92c-.18-.9-.46-1.84-.55-2.75-.1-1.14.7-1.38,1.59-1.84a271.16,271.16,0,0,1,42.64-17.85q12.47-4,25.27-6.82c1.63-.35.94-2.86-.69-2.5Z"></path> <path d="M694.92,251c.09-.11.2-.21.3-.31s0,0-.06,0a.66.66,0,0,0,.17-.12,2.82,2.82,0,0,1,.38-.21l.08,0c.08,0,.05,0-.12,0a1.09,1.09,0,0,0,.17-.05,2.75,2.75,0,0,1,.41-.11c.23-.06-.21,0,0,0l.22,0h.38c.29,0,0,0,0,0l.21,0,.36.11c.23.07-.18-.09,0,0l.19.09.32.2c.13.08-.21-.18,0,0l.15.14.26.27c.18.21-.11-.16,0,0s.08.12.11.18.12.27.2.36-.09-.24,0-.07.05.15.07.23a1.31,1.31,0,0,0,1.6.91A1.33,1.33,0,0,0,701,251a4.66,4.66,0,0,0-7.93-1.87,1.3,1.3,0,0,0,1.84,1.84Z"></path> <path d="M644.92,258.78c1.94,8.61,4.66,18.57,13.57,22.42,9.25,4,17.14-3.5,23.59-9.17q6.84-6,13.45-12.26c1.21-1.15-.63-3-1.84-1.84q-5.22,4.94-10.58,9.72a109,109,0,0,1-10.62,8.94c-3.37,2.3-7.31,3.92-11.41,2.79a15.8,15.8,0,0,1-8.93-7.31c-2.56-4.26-3.64-9.19-4.73-14-.36-1.63-2.87-.94-2.5.69Z"></path> <path d="M699.05,252.31c19.17,7.27,38.37,14.55,58.18,19.9,5.34,1.44,10.81,2.61,15.86,4.92l-.59-1.46q-8.31,23.37-15.92,47l1.6-.91a84.25,84.25,0,0,0-30.55-3c-1.65.15-1.67,2.75,0,2.6a81.81,81.81,0,0,1,29.86,2.86,1.33,1.33,0,0,0,1.6-.91q7.6-23.61,15.91-47a1.31,1.31,0,0,0-.59-1.47,83.65,83.65,0,0,0-13.73-4.45q-7.59-2-15.08-4.32c-9.87-3.06-19.61-6.5-29.3-10.09-5.53-2-11-4.13-16.56-6.22-1.56-.6-2.24,1.91-.69,2.5Z"></path> <path d="M610.13,308.4c-5.9,22.65-10.44,45.66-14.33,68.74-4,23.91-7.3,47.95-10,72q-2.14,19.05-3.79,38.15a1.32,1.32,0,0,0,1.3,1.3q26.3,1.47,52.54,3.81t52.37,5.6q14.81,1.84,29.56,4c1.63.24,2.34-2.26.69-2.5q-26.12-3.75-52.36-6.64Q639.68,490,613.16,488q-14.92-1.11-29.86-2l1.3,1.3q3-34.84,7.66-69.53c3.24-23.9,7.06-47.74,11.83-71.38,2.53-12.52,5.33-25,8.54-37.33a1.3,1.3,0,0,0-2.5-.69Z"></path> <path d="M730.66,319.06a617,617,0,0,0-10.55,69.63c-2.42,24.45-3.76,49-4,73.58-.12,12.83.08,25.67.7,38.48.08,1.66,2.67,1.67,2.59,0-1.13-23.36-.9-46.78.23-70.14,1.18-24.48,3.35-48.94,6.84-73.21,1.81-12.62,4-25.19,6.69-37.65.35-1.63-2.15-2.33-2.51-.69Z"></path> <path d="M601.31,491.56c5.5,11.44,7.82,24.05,10.71,36.31q4.41,18.75,9.61,37.28,10.44,37.3,24,73.63,7.64,20.41,16.24,40.45l.46-1.77a9.52,9.52,0,0,0,7.92,17.26c1.56-.57.88-3.08-.69-2.5a6.93,6.93,0,0,1-5.92-12.52,1.35,1.35,0,0,0,.47-1.78q-15.3-35.67-27.51-72.55T615.4,530.88c-3.28-13.69-5.7-27.84-11.85-40.63-.72-1.5-3-.19-2.24,1.31Z"></path> <path d="M669.62,695.75q20.64,40.56,42.18,80.63,10.71,19.93,21.64,39.74c3.51,6.36,7,12.76,10.62,19,3.31,5.66,7,11.49,11.8,16a7.08,7.08,0,0,0,4.38,2.22c2,.1,3.84-.83,5.6-1.55,3.62-1.49,7.2-3.09,10.7-4.83A161.59,161.59,0,0,0,797,835c1.36-.94.07-3.19-1.31-2.24a164.88,164.88,0,0,1-17.58,10.59q-4.65,2.42-9.46,4.53-2.36,1-4.74,2c-1.57.63-3.27,1.4-4.89.5a14.48,14.48,0,0,1-3.36-3.18c-1.18-1.33-2.31-2.71-3.37-4.15-1.91-2.58-3.64-5.3-5.29-8.06-3.6-6.05-6.93-12.27-10.33-18.43q-21.42-38.76-42-78-11.53-22-22.8-44.14c-.76-1.49-3-.17-2.24,1.31Z"></path> <path d="M704.81,499.07c-.21,22.05-.77,44.09-.64,66.14s.91,43.88,3.45,65.68a358.79,358.79,0,0,0,6,36.26l1.26-1.64-15.59,1.58c-1.64.17-1.66,2.77,0,2.6l15.59-1.59a1.32,1.32,0,0,0,1.25-1.64c-4.74-21.31-7.2-43.05-8.38-64.83s-1.14-43.81-.86-65.72c.15-12.28.38-24.56.49-36.84a1.3,1.3,0,0,0-2.59,0Z"></path> <path d="M704.33,680.9l9.73-3.84a1.33,1.33,0,0,0,.9-1.59,1.3,1.3,0,0,0-1.59-.91l-9.73,3.84a1.34,1.34,0,0,0-.91,1.6,1.3,1.3,0,0,0,1.6.9Z"></path> <path d="M713,688.13l6.17-3.09a1.3,1.3,0,0,0,.47-1.77,1.34,1.34,0,0,0-1.78-.47l-6.17,3.09a1.29,1.29,0,0,0-.46,1.77,1.31,1.31,0,0,0,1.77.47Z"></path> <path d="M715.54,671.91a9.2,9.2,0,0,0,4.45,1l-1.3-1.3a11.38,11.38,0,0,1-1.07,5.2l2.37,1c-.08.22.11,0-.07.13l-.11.08c.1-.06.11-.07,0,0s.09,0,.13,0c-.32,0,0,0,.08,0-.17,0-.1,0,0,0a2.29,2.29,0,0,1,.28.09c-.26-.11.06.06.09.08-.15-.1,0,0,0,0s0-.2,0,0c0-.16.06.17.07.21a2.15,2.15,0,0,1,0,.8,8.65,8.65,0,0,1-.56,1.79,1.3,1.3,0,0,0,.9,1.6,1.33,1.33,0,0,0,1.6-.91c.74-1.9,1.24-4.46-.74-5.8a2.81,2.81,0,0,0-4.32,1.17c-.49,1.37,1.73,2.33,2.37,1a14.36,14.36,0,0,0,1.43-6.51,1.32,1.32,0,0,0-1.3-1.3,6.43,6.43,0,0,1-3.14-.68,1.3,1.3,0,0,0-1.31,2.24Z"></path> <path d="M721.12,683.87q16.05,27.57,31.55,55.45T783,795.17Q791.4,811,799.62,827c.77,1.48,3,.17,2.24-1.31q-14.61-28.35-29.79-56.41t-30.8-55.58q-8.87-15.63-17.91-31.15a1.3,1.3,0,0,0-2.24,1.31Z"></path> <path d="M752.23,898.66c-.5-.61.58-2,.9-2.48a20.48,20.48,0,0,1,2-2.53,23.6,23.6,0,0,1,17.6-7.55,1.3,1.3,0,0,0,0-2.6,26,26,0,0,0-15.14,4.62,25.65,25.65,0,0,0-5.76,5.44c-1.51,2-3.34,4.63-1.45,6.93,1.07,1.29,2.9-.55,1.84-1.83Z"></path> <path d="M775,846.24c-1.28,12.13,3.15,24.63-.66,36.51-.51,1.6,2,2.28,2.51.69,3.89-12.15-.56-24.82.75-37.2.17-1.66-2.42-1.64-2.6,0Z"></path> <path d="M750.82,899a99.29,99.29,0,0,0,32.69-3.23,1.3,1.3,0,0,0-.69-2.5,97.28,97.28,0,0,1-32,3.14c-1.66-.11-1.66,2.48,0,2.59Z"></path> <path d="M747.44,901.12c6,4.62,14,5.13,21.23,4.2,8.32-1.07,16.57-3,24.8-4.63,1.64-.32.94-2.82-.69-2.5-7.81,1.52-15.63,3.33-23.51,4.45-7,1-14.66.73-20.52-3.76-1.33-1-2.62,1.24-1.31,2.24Z"></path> <path d="M772.24,883.64a39.86,39.86,0,0,0,5.47,8.63,1.32,1.32,0,0,0,1.84,0,1.33,1.33,0,0,0,0-1.83,36.49,36.49,0,0,1-2.75-3.82,38.55,38.55,0,0,1-2.32-4.29,1.3,1.3,0,0,0-2.24,1.31Z"></path> <path class="cls-3" d="M774.86,884.66a13.64,13.64,0,0,0,8.3,2.41,1.3,1.3,0,1,0,0-2.6,10.17,10.17,0,0,1-3.66-.43c-.3-.09-.59-.18-.87-.29l-.3-.12c-.16-.06-.32-.14-.47-.21a13,13,0,0,1-1.69-1,1.31,1.31,0,0,0-1.78.46,1.33,1.33,0,0,0,.47,1.78Z"></path> <path class="cls-3" d="M776.64,855.56a23.71,23.71,0,0,1,14.54-2.7l-1-1.25c-.06.6-1.11,1-1.58,1.14-1.3.46-2.66.8-4,1.18l-8.45,2.47a1.3,1.3,0,0,0,.69,2.51l9.94-2.91c2.42-.71,5.69-1.35,6-4.39a1.3,1.3,0,0,0-1-1.25,26.63,26.63,0,0,0-16.54,3c-1.47.8-.16,3,1.31,2.24Z"></path> <path class="cls-3" d="M777.13,862.71l9.23-.6A13.72,13.72,0,0,1,790,862c.11,0,.4.07.47.18s-.09-.06-.08-.1a2.65,2.65,0,0,1-.74,1.09c-2.75,3-7.68,2.59-11.33,2.25a1.3,1.3,0,0,0-1.3,1.3,1.32,1.32,0,0,0,1.3,1.29c3.8.36,8.24.51,11.57-1.67,1.59-1,3.88-3.3,2.84-5.38s-4.07-1.59-6-1.46l-9.66.62c-1.66.11-1.67,2.71,0,2.6Z"></path> <path class="cls-3" d="M777.14,871.67l7.5.44,3.75.23a13.47,13.47,0,0,1,1.56.11,2.6,2.6,0,0,0,.4.1c.59,0,0,.19.12,0a.23.23,0,0,1,0-.27c.07,0,0,.05-.1.13a3,3,0,0,0-.35.19,4.86,4.86,0,0,1-1.2.27,33.49,33.49,0,0,1-3.61.4,40.23,40.23,0,0,1-7.52-.25,1.3,1.3,0,0,0-1.29,1.3,1.34,1.34,0,0,0,1.29,1.3,41.11,41.11,0,0,0,7.1.27c1.19-.06,2.38-.18,3.57-.34a9.77,9.77,0,0,0,3-.71c1.84-.9,2.31-3.39.36-4.49a6.22,6.22,0,0,0-2.76-.58l-3.61-.21-8.22-.48c-1.67-.1-1.66,2.49,0,2.59Z"></path> <path d="M791.41,890.59l4.32-14.6c1.42-4.8,2.66-9.7,4.33-14.41a17.51,17.51,0,0,1,3.22-5.6c1.27-1.5,2.64-2.91,3.76-4.53a13.45,13.45,0,0,0,1.49-11.86c-1.53-4.84-5-8.64-8.45-12.27-1.14-1.22-3,.62-1.83,1.84,2.89,3.08,6,6.3,7.5,10.32a11.32,11.32,0,0,1-1.54,11.46c-1.18,1.5-2.54,2.85-3.7,4.36a19.6,19.6,0,0,0-2.89,5.39c-1.58,4.38-2.72,9-4,13.43l-4.67,15.78a1.3,1.3,0,0,0,2.5.69Z"></path> <path d="M799.15,829.24c3.8,4.35,7.78,8.6,11.42,13.08,1.47,1.82,2.89,4.06,2.45,6.5a8.91,8.91,0,0,1-2.9,4.59c-1.45,1.41-3,2.64-4.52,4a18.9,18.9,0,0,0-4.11,5.57c-2.38,4.91-3.72,10.45-5.07,15.71a171.05,171.05,0,0,0-3.75,19.34c-.22,1.63,2.28,2.34,2.5.69a173.6,173.6,0,0,1,3.4-18c.73-2.95,1.54-5.89,2.43-8.8a51.24,51.24,0,0,1,2.82-7.87,18.33,18.33,0,0,1,4.36-5.54,57.32,57.32,0,0,0,4.68-4.28,10.29,10.29,0,0,0,2.72-5.1,9.48,9.48,0,0,0-1.66-6.68,64,64,0,0,0-5.89-7.07l-7-8.05c-1.1-1.26-2.93.58-1.83,1.83Z"></path> <path d="M651.12,868.17l.2,5.36a9.35,9.35,0,0,1,0,2.18c-.15.81-.66.94-1.41,1.07-3.44.6-6.91,1-10.34,1.68A198.94,198.94,0,0,0,619,883.53c-1.59.48-.91,3,.69,2.5a198.48,198.48,0,0,1,22.92-5.5c1.9-.34,3.8-.64,5.71-.92,1.5-.23,3.36-.2,4.52-1.33a4.88,4.88,0,0,0,1.1-3.78c-.06-2.11-.17-4.22-.25-6.33-.06-1.67-2.66-1.67-2.59,0Z"></path> <path d="M597.88,896.66a18.51,18.51,0,0,1,6.63-7.09,26.07,26.07,0,0,1,9.44-4.13c7.21-1.4,12.88,3,18,7.48,1.25,1.09,3.1-.74,1.83-1.84-2.89-2.51-5.86-5.09-9.35-6.73a17.71,17.71,0,0,0-10.75-1.49,27.64,27.64,0,0,0-10.48,4.47,21.27,21.27,0,0,0-7.57,8c-.73,1.5,1.51,2.81,2.25,1.31Z"></path> <path d="M595.86,898.49a133.4,133.4,0,0,0,35.26-2.8c1.63-.35.94-2.86-.69-2.51a129.9,129.9,0,0,1-34.57,2.71c-1.67-.09-1.67,2.51,0,2.6Z"></path> <path d="M591.48,899.64c.53,2,.91,4.13,1.62,6.07s2.38,1.76,4.11,1.7q6.46-.2,12.91-.74a249.43,249.43,0,0,0,25.25-3.43c1.64-.31,1-2.81-.69-2.5q-11.22,2.1-22.61,3.16c-3.73.35-7.47.6-11.2.78l-2.69.1c-.62,0-2.22.36-2.69-.11a6.52,6.52,0,0,1-.37-1.43l-.38-1.43L594,899a1.3,1.3,0,0,0-2.51.69Z"></path> <path d="M632.11,897a64.62,64.62,0,0,1,16.21-2.77,92.73,92.73,0,0,1,16.55,1.28c4.93.68,10.53,1.25,15.16-1a9,9,0,0,0,4.19-3.91,6.18,6.18,0,0,0-.5-5.9c-3-5.44-6.52-10.69-10-15.86-.93-1.38-3.18-.09-2.24,1.31q4.26,6.33,8.23,12.88c1,1.63,3,3.93,2.36,6-.55,1.79-2.51,3-4.18,3.61-4.73,1.67-10.12.73-14.94,0a77.9,77.9,0,0,0-14.87-1,67.79,67.79,0,0,0-16.66,2.86,1.3,1.3,0,0,0,.69,2.5Z"></path> <path d="M642.06,902.73c8.51-1.26,17.13-.49,25.68-.3a90.14,90.14,0,0,0,12.83-.47,45.24,45.24,0,0,0,6-1.05c1.4-.37,2.91-1.14,3.24-2.69s-.86-3.7-1.68-5.05a7,7,0,0,0-4-3.33,1.3,1.3,0,0,0-.69,2.5c1.73.49,2.6,2.19,3.29,3.72a4,4,0,0,1,.55,1.39c0,.53-.41.64-.88.81a17.25,17.25,0,0,1-2.93.66,72.85,72.85,0,0,1-14.07.94c-9.35-.11-18.7-1-28,.36-1.65.25-1,2.75.69,2.51Z"></path> <path class="cls-3" d="M652.54,874.19a54.38,54.38,0,0,0,15.5-1.77,1.3,1.3,0,0,0-.69-2.5,51.73,51.73,0,0,1-14.81,1.67c-1.67-.05-1.67,2.55,0,2.6Z"></path> <path class="cls-3" d="M632.55,882.09l3.57,3.76a7.24,7.24,0,0,0,3.7,2.43,3.1,3.1,0,0,0,2.3-.39,3,3,0,0,0,1.32-2.09,5.81,5.81,0,0,0-1.34-4.12,12.59,12.59,0,0,0-3.85-3.49,1.3,1.3,0,0,0-1.31,2.24l.73.46.38.27h0l.2.16a11.72,11.72,0,0,1,1.28,1.26c.1.11.2.23.29.35s0,0,0,0l.12.16c.17.25.34.51.5.77l.2.37c.1.21,0-.09.06.14s.09.26.12.4.09.43.06.18a2.67,2.67,0,0,1,0,.4,1,1,0,0,1,0,.17c0-.07,0-.17,0-.08s0,.12,0,.16c0-.22,0-.08,0,0s-.11.17,0,0-.08.06-.09.08l0,0c.1-.07.11-.09,0,0l-.14.08c.19-.1,0,0-.09,0,.27-.06,0,0-.12,0s0,0,.08,0l-.21-.06-.22-.06s-.19-.08-.06,0l-.23-.12a2.77,2.77,0,0,1-.37-.22l-.16-.1-.12-.09c-.08-.06-.38-.32-.53-.47s-.47-.48-.7-.72l-3.46-3.64a1.31,1.31,0,0,0-1.84,0,1.32,1.32,0,0,0,0,1.83Z"></path> <path class="cls-3" d="M644.63,880.31q2,1.74,4,3.4c1.34,1.08,2.83,2.38,4.67,2.34a3.42,3.42,0,0,0,3.23-2.72,4.7,4.7,0,0,0-1-4.05,9.93,9.93,0,0,0-4.52-2.57,1.3,1.3,0,1,0-.69,2.51,13.06,13.06,0,0,1,2,.8,3.86,3.86,0,0,1,1.44,1.15,1.87,1.87,0,0,1,.22.39c-.12-.26,0,.16.07.22s.05.22.07.33c-.06-.31,0,.15,0,.22s-.07.52,0,.21c0,.14-.07.28-.11.42s0,.13,0,0c0,.07-.07.13-.1.19s-.08.12,0,0l-.14.15c-.11.1-.1.1,0,0l-.18.11c-.12.06-.13.07,0,0l-.29.07c.23,0-.42-.06-.2,0a2.41,2.41,0,0,1-.58-.17,8.78,8.78,0,0,1-1.73-1.17q-2.2-1.77-4.33-3.62a1.32,1.32,0,0,0-1.83,0,1.29,1.29,0,0,0,0,1.83Z"></path> <path class="cls-3" d="M654,877.48a24.32,24.32,0,0,0,12.28,3.77,1.31,1.31,0,0,0,1.25-1.64,10.09,10.09,0,0,0-11.13-6.48,1.3,1.3,0,0,0-.9,1.6,1.32,1.32,0,0,0,1.59.91A7.44,7.44,0,0,1,665,880.3l1.26-1.65a21.59,21.59,0,0,1-11-3.41c-1.42-.9-2.72,1.35-1.31,2.24Z"></path> <path d="M579.71,694.1c-2.14-2.56-5-5.84-4.6-9.43.22-2.23,2.71-5.48,5.26-4.33a1.35,1.35,0,0,0,1.78-.47,1.31,1.31,0,0,0-.47-1.77c-4-1.79-8.1,1.47-9,5.38-1.09,4.74,2.35,9.07,5.18,12.46,1.07,1.28,2.9-.56,1.84-1.84Z"></path> <path d="M578.26,678q4.15-36.93,7.57-74t6.08-74.1q1.5-20.84,2.76-41.68c.11-1.67-2.49-1.66-2.59,0q-2.25,37.11-5.25,74.16t-6.73,74Q578,657.25,575.67,678c-.19,1.66,2.41,1.65,2.59,0Z"></path> <path d="M576.33,699.18q18.88,39.83,34.61,81.06,7.78,20.46,14.78,41.2,3.49,10.37,6.79,20.81,1.65,5.22,3.24,10.45c.87,2.84,1.55,5.86,3,8.48a8.12,8.12,0,0,0,7.53,4.47c4.19-.08,8.44-.74,12.61-1.13l25.6-2.37c1.65-.15,1.66-2.75,0-2.59l-22.64,2.09-10.83,1c-3,.29-6.83,1.28-9.09-1.39-1.84-2.17-2.46-5.24-3.26-7.88q-1.51-5-3.09-10-3.27-10.44-6.75-20.82-13.67-40.75-30.41-80.4Q589,719.8,578.57,697.87c-.72-1.51-3-.2-2.24,1.31Z"></path> <path d="M618.07,687.53l11.44,3.14a1.3,1.3,0,0,0,.69-2.5L618.76,685a1.3,1.3,0,0,0-.69,2.5Z"></path> <path d="M620.73,670.79a70.4,70.4,0,0,0,11.72,13.76c1.24,1.12,3.08-.71,1.84-1.83A67.85,67.85,0,0,1,623,669.48c-.91-1.39-3.16-.09-2.24,1.31Z"></path> <path d="M626.34,703.69c.18-.31.37-.61.57-.91l.19-.26c.14-.2-.07.09,0,0l.34-.41a11.94,11.94,0,0,1,1.58-1.52c.19-.16-.1.06,0,0l.21-.16.44-.3a9.6,9.6,0,0,1,.92-.54l.48-.25.29-.13c.23-.1-.11,0,0,0,.35-.14.7-.27,1.06-.38a1.3,1.3,0,0,0-.69-2.5,13.35,13.35,0,0,0-7.72,6.12,1.3,1.3,0,0,0,2.24,1.31Z"></path> <path d="M635.64,681.48a219.43,219.43,0,0,1,8.07-54.2,1.3,1.3,0,0,0-2.5-.69,222.09,222.09,0,0,0-8.16,54.89,1.3,1.3,0,0,0,2.59,0Z"></path> <path d="M633.51,685.51Q645.62,719,656.22,753t19.62,68.22q5.1,19.34,9.71,38.78c.39,1.62,2.89.94,2.5-.69q-8.22-34.65-18-68.92t-20.94-67.82q-6.33-19-13.11-37.77c-.57-1.56-3.08-.88-2.51.69Z"></path> <path d="M515.9,223.38l12.19,67.09,6.12,33.66c.37,2,.68,4.23,2.3,5.65s4.23,1.68,6.29,2a53.87,53.87,0,0,0,13.6.57,55,55,0,0,0,28.52-10.81c1.31-1,0-3.25-1.31-2.24a52.83,52.83,0,0,1-24.16,10.11,52,52,0,0,1-13.31.23,35.8,35.8,0,0,1-6.58-1.21c-2.32-.7-2.47-2.94-2.85-5L525,259.06l-6.61-36.37c-.3-1.65-2.8-.95-2.5.69Z"></path> <path d="M558.1,299.91a14.91,14.91,0,0,1,5.86-8.74,1.32,1.32,0,0,0,.46-1.77,1.3,1.3,0,0,0-1.77-.47,17.59,17.59,0,0,0-7.06,10.29,1.34,1.34,0,0,0,.91,1.6,1.31,1.31,0,0,0,1.6-.91Z"></path> <path d="M563.57,292.23a40,40,0,0,1,11.89-3.7,1.31,1.31,0,0,0,.91-1.6,1.33,1.33,0,0,0-1.6-.9,42,42,0,0,0-12.51,4,1.3,1.3,0,0,0-.47,1.77,1.33,1.33,0,0,0,1.78.47Z"></path> <path d="M562.17,290.61Q551.64,262.22,543.54,233q-2.28-8.25-4.37-16.56a1.3,1.3,0,0,0-2.51.69q7.4,29.37,17.24,58,2.79,8.1,5.77,16.13c.57,1.56,3.08.88,2.5-.69Z"></path> <path d="M540,216.68c-.92-9.27,5.09-17,9.12-24.77a34,34,0,0,0,2.5-5.7,4.89,4.89,0,0,0-.51-4.55,3.69,3.69,0,0,0-4.53-.72c-1.74.85-2.52,2.67-3.2,4.37a42.92,42.92,0,0,1-7.46,12.24c-1.09,1.26.74,3.1,1.84,1.84a45.1,45.1,0,0,0,6.14-9c.84-1.62,1.49-3.3,2.21-5a4.71,4.71,0,0,1,1.31-2c.64-.48,1.61-.64,1.89.27.42,1.38-.79,3.44-1.34,4.63-.82,1.79-1.76,3.53-2.72,5.24a108.58,108.58,0,0,0-5.45,10.28,26.19,26.19,0,0,0-2.4,12.8c.17,1.65,2.76,1.66,2.6,0Z"></path> <path d="M517.61,221.88c-3.25-7.61-6.63-15.3-11.71-21.9a40.25,40.25,0,0,0-8.6-8.39c-1.6-1.13-3.35-2-4.88-3.25-1.27-1-2.77-2.45-2.52-4.23l-1.59.9a96,96,0,0,1,13.38,6.78c1.07.65,2.05-.42,1.91-1.47a22.76,22.76,0,0,0-4.18-10.38c-1.66-2.23-3.67-4.19-5.31-6.44a6.55,6.55,0,0,1-1.57-2.93c-.07-.85.55-2.74,1.57-2.51s2,1.69,2.58,2.33c.79.84,1.54,1.71,2.31,2.57l10,11.25c1,1.08,2.33-.12,2.17-1.26-.89-6.38-3.91-12-6-18-.29-.84-.57-1.7-.83-2.55a10.64,10.64,0,0,1-.8-2.86c0-1.16,1.15-.65,1.72-.28a5.68,5.68,0,0,1,1.95,2.68l3,6.23,6.68,13.81a1.31,1.31,0,0,0,2.24,0c2.73-4.18.16-9.35-1.24-13.5a48.87,48.87,0,0,1-1.64-6.54,23.8,23.8,0,0,1-.66-6.72c0-.34.15-.65.19-1,0-.16.24-.26-.06-.08.13-.07.07-.05.1,0a3.42,3.42,0,0,1,.7.62,17.56,17.56,0,0,1,2.51,5.7c.61,1.94,1.1,3.92,1.63,5.89,1,3.46,2.13,6.85,3.4,10.2,2.9,7.57,6.21,15,8.28,22.82a1.3,1.3,0,0,0,2.5-.69c-2-7.43-5-14.46-7.8-21.6-1.4-3.6-2.71-7.25-3.75-11-.6-2.16-1.12-4.34-1.8-6.48a21.23,21.23,0,0,0-2.79-6.26c-1-1.37-2.85-2.54-4.45-1.29s-1.35,3.6-1.24,5.25a48,48,0,0,0,1.29,7.9,62.42,62.42,0,0,0,2.12,6.68c.94,2.63,2.14,6.19.47,8.76h2.24l-6.79-14c-1.15-2.37-2.24-4.78-3.45-7.13a6.5,6.5,0,0,0-2.44-2.55,3.86,3.86,0,0,0-3.71-.45,3.45,3.45,0,0,0-1.65,4A89.26,89.26,0,0,0,505.15,172a48.58,48.58,0,0,1,3.49,11.61l2.17-1.26L500.67,171c-.84-1-1.67-1.92-2.56-2.83a8.81,8.81,0,0,0-3.22-2.54c-3.37-1.07-5.53,3.36-4.78,6.09a11.47,11.47,0,0,0,2.13,3.65c1,1.3,2,2.54,3.11,3.77A22.35,22.35,0,0,1,501.09,191l1.91-1.46a99.09,99.09,0,0,0-14-7,1.3,1.3,0,0,0-1.6.91c-.45,3.12,1.36,5.37,3.73,7.17,2.58,2,5.43,3.46,7.86,5.66,5,4.55,8.61,10.42,11.62,16.44,1.72,3.44,3.25,7,4.76,10.5.65,1.53,2.89.21,2.24-1.31Z"></path> <path d="M772.2,284c4.57,1.09,9.14,2.33,13.75,3.29a3,3,0,0,0,2.53-.32,5.07,5.07,0,0,0,1.41-2.37l2.7-6.7,10.71-26.54L814,224.8c.88-2.18,1.86-4.35,2.63-6.57a6.3,6.3,0,0,0-.48-5.62c-1-1.72-2.46-3.23-3.58-4.9a50.25,50.25,0,0,1-3.12-5.29,52,52,0,0,1-4.56-12.84c-.64-3-2.25-9.07,1.07-11.14l-1.78-.46q4.51,7.61,8.69,15.42c.78,1.47,3,.16,2.24-1.31q-4.17-7.82-8.69-15.42a1.31,1.31,0,0,0-1.77-.47c-2.83,1.77-3.39,5.2-3.15,8.29a48.39,48.39,0,0,0,2.38,11.3,55,55,0,0,0,5,10.9,52.42,52.42,0,0,0,3.33,4.92c1.25,1.64,2.74,3.07,2.15,5.3a55.21,55.21,0,0,1-2.46,6.28l-2.7,6.69L804,242.81l-10.52,26.08q-3,7.39-6,14.78c-.33.81-.37,1.13-1.32,1-.63-.09-1.27-.3-1.89-.45l-3.56-.85-7.82-1.88c-1.63-.39-2.32,2.12-.69,2.51Z"></path> <path d="M814.37,193.31c4,1.18,5.61-4.75,6.73-7.41l5.53-13.12q2.77-6.56,5.54-13.12c1.4-3.32,2.92-7,6.21-8.87l-1.9-.78c.87,4.88-1.8,9.68-3.36,14.15a93,93,0,0,0-3.77,14.47c-.21,1.18,1.21,2.3,2.16,1.27,4.51-4.92,5.66-11.64,8.91-17.29a15.51,15.51,0,0,1,2.79-3.65,10.38,10.38,0,0,1,1.7-1.33c.21-.12.76-.53,1-.39s.06.76,0,.91a8.87,8.87,0,0,1-.82,2.35c-.51,1.17-1,2.35-1.54,3.52q-1.45,3.28-3,6.55c-1.15,2.47-2.35,4.9-3.51,7.36-.86,1.84-1.37,3.71,0,5.43a1.3,1.3,0,0,0,1.57.21c4.8-2.93,7.41-8,11.12-12a17.06,17.06,0,0,1,2.86-2.57c.61-.41,3-2,3.75-1.5s-1.22,3.68-1.51,4.23c-.9,1.71-1.86,3.4-2.88,5.05a88.41,88.41,0,0,1-7.63,10.6c-.9,1.07.24,2.87,1.57,2a55.59,55.59,0,0,1,13.74-6.21,19.65,19.65,0,0,1,3.21-.83c.24,0,.84-.12,1.07,0s-.16.72-.42,1.08a22.1,22.1,0,0,1-4.95,4.7c-3.58,2.65-7.23,5.05-10.17,8.45a36.46,36.46,0,0,0-6.65,11.52c-1.44,3.92-4.18,11.29-9.81,9.17-1.56-.59-2.24,1.92-.69,2.51,5,1.88,9.44-2.45,11.33-6.67,1.16-2.57,1.9-5.31,3.15-7.85a32.24,32.24,0,0,1,4.37-6.69c3.48-4.06,8-6.59,12.08-10a21.32,21.32,0,0,0,2.66-2.63,6.51,6.51,0,0,0,1.86-3.35c.19-2.43-2.44-3.11-4.35-2.81a39.66,39.66,0,0,0-8.88,2.79,58.73,58.73,0,0,0-8.86,4.54l1.57,2A93.52,93.52,0,0,0,854,178.47c1.18-1.9,2.29-3.85,3.32-5.83.8-1.53,1.84-3.21,1.75-5-.22-4.44-5.56-2.36-7.75-.88a29,29,0,0,0-6.45,6.72c-2.2,2.88-4.38,5.93-7.53,7.85l1.58.2c-.52-.67.34-2.12.63-2.72.56-1.15,1.12-2.3,1.67-3.46q1.69-3.57,3.32-7.18t3.09-7c.66-1.53,1.35-3.36.59-5-1.79-3.87-6.53.41-8.09,2.32a34.27,34.27,0,0,0-4.84,9.17c-1.47,3.65-2.9,7.47-5.6,10.42l2.17,1.26A92.65,92.65,0,0,1,835.94,164c1.71-4.76,4-9.46,3-14.65a1.3,1.3,0,0,0-1.91-.77c-3,1.68-4.78,4.56-6.17,7.58-1.79,3.88-3.36,7.88-5,11.82l-5.24,12.43L818,186.6c-.4.94-1.45,4.65-3,4.21a1.3,1.3,0,0,0-.69,2.5Z"></path> <path d="M760.13,321.21c4.11.09,7.85,2.47,11.69,3.7a77.08,77.08,0,0,0,12.41,2.69c2,.3,4.07.57,6.11.85a45.89,45.89,0,0,1,6.06.9c1,.27.78,1,1.12,1.78a4.42,4.42,0,0,0,1.56,1.89,6.09,6.09,0,0,0,4.75.77c3.24-.65,9-3.47,6.56-7.64a1.3,1.3,0,0,0-2.24,1.31c1.14,2-3.15,3.33-4.37,3.67a3.83,3.83,0,0,1-3.11-.17c-1-.61-.76-1.61-1.26-2.52-.92-1.67-3.11-1.74-4.77-2-2.41-.36-4.82-.66-7.24-1a91.61,91.61,0,0,1-13.81-2.71c-4.47-1.33-8.71-4-13.46-4.12a1.3,1.3,0,0,0,0,2.59Z"></path> <path d="M810.13,325.66a408.86,408.86,0,0,0,19.77-81.91q1.58-11.76,2.48-23.61c.13-1.67-2.46-1.66-2.59,0a407.22,407.22,0,0,1-14.89,82.23q-3.3,11.42-7.27,22.6c-.56,1.58,2,2.26,2.5.69Z"></path> <path d="M651.24,252.4a45.37,45.37,0,0,0,1.54-6.91,46.07,46.07,0,0,1,1.55-6.91,1.3,1.3,0,1,0-2.5-.69,44.87,44.87,0,0,0-1.55,6.91,45.4,45.4,0,0,1-1.55,6.91,1.3,1.3,0,0,0,.91,1.59,1.33,1.33,0,0,0,1.6-.9Z"></path> <path d="M689.92,232.31l3.62,16.18c.36,1.63,2.87.94,2.5-.69l-3.62-16.18c-.37-1.63-2.87-.94-2.5.69Z"></path> <path d="M619.89,333.21l1.38,16.17c.14,1.65,2.74,1.66,2.6,0l-1.39-16.17c-.14-1.65-2.74-1.67-2.59,0Z"></path> <path d="M619.78,334.89a4,4,0,0,1,1.25-1.18,4.29,4.29,0,0,1,1.75-.63c.22,0-.17,0,.05,0l.27,0h.46c.05,0,.54,0,.32,0a3.87,3.87,0,0,1,.59.13,3.77,3.77,0,0,1,1.45.78,4.3,4.3,0,0,1,1.11,1.57c-.08-.17.1.28.11.32s.09.3.13.45a2.65,2.65,0,0,1,.1.84,4.64,4.64,0,0,1,0,.53s0,.31,0,.16,0,.09,0,.09c0,.18-.08.35-.13.52l-.09.25-.05.13c0-.08,0-.08,0,0a3.89,3.89,0,0,1-1.18,1.47l-.06.05-.29.19a5.54,5.54,0,0,1-.53.3,3.92,3.92,0,0,1-1,.32c-.08,0-.49.09-.32.07-.2,0-.41,0-.61,0s-.58,0-.4,0a5.23,5.23,0,0,1-.66-.15,1.3,1.3,0,0,0-.69,2.5,6.85,6.85,0,0,0,8.59-5.78,6.74,6.74,0,0,0-6.91-7.36,7,7,0,0,0-5.49,3.12,1.3,1.3,0,1,0,2.24,1.31Z"></path> <path d="M633.56,333.35a15,15,0,0,1,1.59.83c.27.17.54.34.79.52l.35.24.19.14c-.11-.1-.13-.1,0,0a16.94,16.94,0,0,1,1.33,1.2c.21.21.42.43.61.66l.31.36.12.14c.2.26-.17-.22,0,0a1.5,1.5,0,0,0,.78.6,1.39,1.39,0,0,0,1-.13,1.32,1.32,0,0,0,.47-1.78,16.37,16.37,0,0,0-6.25-5.06,1.3,1.3,0,0,0-1.31,2.24Z"></path> <path d="M642.84,329.8a85.61,85.61,0,0,0-7.54,16.14c-.54,1.58,2,2.26,2.51.69a81.58,81.58,0,0,1,7.27-15.52,1.3,1.3,0,0,0-2.24-1.31Z"></path> <path d="M652.26,330.18a148.18,148.18,0,0,0-1.44,15.61c-.07,1.67,2.53,1.66,2.59,0a145.83,145.83,0,0,1,1.35-14.92,1.34,1.34,0,0,0-.9-1.6,1.31,1.31,0,0,0-1.6.91Z"></path> <path d="M648.56,331.6l9,.42a1.3,1.3,0,0,0,0-2.59l-9-.43a1.3,1.3,0,1,0,0,2.6Z"></path> <path d="M663.2,331a105.4,105.4,0,0,0-3.29,14.46,1.33,1.33,0,0,0,.9,1.59,1.31,1.31,0,0,0,1.6-.9,106.9,106.9,0,0,1,3.29-14.46,1.3,1.3,0,0,0-2.5-.69Z"></path> <path d="M662.13,338.51l6.76,1.2a1.3,1.3,0,0,0,.69-2.51L662.82,336a1.33,1.33,0,0,0-1.6.91,1.31,1.31,0,0,0,.91,1.59Z"></path> <path d="M669.33,331.93l-1.49,9.26-.35,2.17a8.15,8.15,0,0,0-.26,2.19c.15,1.34,1.33,2.55,2.7,1.77a1.3,1.3,0,0,0-1.31-2.24l.09-.05h.69a.65.65,0,0,1,.42.33q-.09-.24,0-.15a3.78,3.78,0,0,0,.09-.48l.28-1.77.55-3.4,1.13-6.94a1.33,1.33,0,0,0-.91-1.59,1.32,1.32,0,0,0-1.6.9Z"></path> <path d="M682.9,333.38c-2.57,1.11-3.85,3.8-4.38,6.4a25.41,25.41,0,0,0-.49,4.07c-.07,1.59.34,3.27,2,3.87a6.67,6.67,0,0,0,4.74-.48,8.74,8.74,0,0,0,3.53-2.9,9.9,9.9,0,0,0,.86-9.5,4.81,4.81,0,0,0-3.79-3.09,3.48,3.48,0,0,0-3.73,2.52,1.3,1.3,0,0,0,2.51.69,1,1,0,0,1,1.28-.58,3,3,0,0,1,1.56,2,7.35,7.35,0,0,1-.87,6.55,6.09,6.09,0,0,1-2.38,1.92,5.53,5.53,0,0,1-1.31.41,2.62,2.62,0,0,1-1.52,0c-.53-.32-.27-1.56-.23-2.06a20.76,20.76,0,0,1,.39-2.94c.43-2,1.21-3.83,3.15-4.67a1.31,1.31,0,0,0,.47-1.77,1.33,1.33,0,0,0-1.78-.47Z"></path> <path d="M699.06,336a118.73,118.73,0,0,0-2,13.67h2.6a51.78,51.78,0,0,1,1.89-12.18h-2.5a120.23,120.23,0,0,0,5.74,14,1.31,1.31,0,0,0,2.37-.31l3.94-13.63a1.3,1.3,0,0,0-2.51-.69l-3.93,13.63,2.37-.31a113.77,113.77,0,0,1-5.48-13.33,1.31,1.31,0,0,0-2.5,0,55,55,0,0,0-2,12.87c-.06,1.69,2.46,1.64,2.6,0a113.64,113.64,0,0,1,1.87-13c.33-1.64-2.17-2.33-2.5-.69Z"></path> <path class="cls-7" d="M710.49,189.79c-.25-.39,9.76-15,10.75-20.23s1.34-11.45-1.56-14.39-10.49-8.1-12.94-8.1-5.44,1.06-7.15-.86-3.78-9-7.67-10.75-10.53-4.58-14.85-2.32-9.1,6.69-12.46,5.26S657,126.72,652,128.3s-6.93,3-7.37,6.48.7,10.47.7,10.47-7.7-8.71-11.13-7.92-11.1,5.94-11.31,10.22,3.06,13.9,6.73,16.15,1.38,3.52,1,7.36-1,9.25,2,9.29a19.7,19.7,0,0,0,5.1-.57l5-11.76,7.84-3.07S649.4,168.51,652,170s6.89,3.4,14.38,2.07,9.65-1.72,14.47-1.41,9.6.61,12.75,3.61,6.29,8.56,6.09,12.18-.52,11.78-.52,11.78l2.48.34s2.67-7.26,5-9S710.49,189.79,710.49,189.79Z"></path> <path d="M702.18,193.58c-.64,9.1-1.31,18.54-4.93,27a32.5,32.5,0,0,1-17.07,17.28c-7.42,3.22-16.74,4-24.23.51-4.15-1.91-7-5.46-9-9.45a72,72,0,0,1-4.94-13.6,101.85,101.85,0,0,1-3.35-34.27c.11-1.59-2.37-1.59-2.48,0A104.26,104.26,0,0,0,639,213.77,87.28,87.28,0,0,0,644,228.42c1.86,4.12,4.4,8.05,8.17,10.66s8.7,3.73,13.28,4a35.32,35.32,0,0,0,32.27-17.7c5.36-9.65,6.23-21,7-31.78.11-1.6-2.37-1.59-2.48,0Z"></path> <path d="M701,210.31c1,2.26,4,2.73,6,1.75,2.68-1.27,3.66-4.45,4.54-7,2-5.89,3.12-13.07-1.67-18-1.11-1.14-2.87.61-1.75,1.76,3.56,3.64,3,9.1,1.66,13.59-.63,2.1-1.23,4.62-2.61,6.38-.93,1.18-3.24,2.12-4,.29-.64-1.46-2.78-.2-2.14,1.25Z"></path> <path d="M707.43,187.13a23.74,23.74,0,0,0-7,11.12l1.52-.87L699.5,197l.91,1.2c.39-5.4.75-11-.91-16.24a17.15,17.15,0,0,0-8.29-10.36c-9.41-4.76-19.82-.32-29.65-.35-2.81,0-6.46-.2-8.68-2.16a3.64,3.64,0,0,1-1.33-3.34,2,2,0,0,1,2.66-1.49l-.3-2.27c-8.22,4.52-19.53,5.88-26.34-1.86a14.52,14.52,0,0,1-3.28-13,11.75,11.75,0,0,1,8.84-8.45,9.69,9.69,0,0,1,11,6.86,1.25,1.25,0,0,0,2.39,0c1.05-4.38-2.88-8.39-.52-12.63A6.61,6.61,0,0,1,656,131c3,2.39,2.88,7.38,7.11,8.44,2.25.56,4.52-.42,6.53-1.34a52.6,52.6,0,0,1,7.07-2.82c4.38-1.32,9.2-1.66,13.39.49a10.75,10.75,0,0,1,4.32,3.84c1,1.68,1.44,3.66,2.45,5.36a6.35,6.35,0,0,0,4.51,3.16c2.23.36,4.5-.19,6.7.33a18,18,0,0,1,6.08,3.23,20.13,20.13,0,0,1,5,4.84c3.26,4.82,1.61,10.89-.16,16A52.69,52.69,0,0,1,711.13,187c-1,1.27,1.18,2.5,2.14,1.25a54.71,54.71,0,0,0,7.53-13.45c1.83-4.72,3.51-10.17,2.37-15.25-1.1-4.89-5.15-8.26-9.13-10.92a15.43,15.43,0,0,0-6.66-2.77c-2.21-.26-5,.56-7-.64-1.78-1.06-2.28-3.52-3-5.29a12.39,12.39,0,0,0-3.8-4.86A17.25,17.25,0,0,0,681,131.9a31.79,31.79,0,0,0-7.74,2c-2.53,1-5,2.58-7.67,3.15s-3.82-1.19-4.84-3.31a12.09,12.09,0,0,0-3.52-4.85,9.07,9.07,0,0,0-12.36,1.42,9.26,9.26,0,0,0-2.16,6.35c.18,2.76,2.12,5.51,1.46,8.28h2.39a12.2,12.2,0,0,0-10.91-8.82c-5-.37-9.89,2.77-12.35,7.06-2.76,4.79-2.32,10.87.3,15.62a18.6,18.6,0,0,0,13.07,9.12c6.39,1.09,12.92-.65,18.51-3.72a1.26,1.26,0,0,0-.29-2.27,4.45,4.45,0,0,0-5.29,2.11c-1.2,2.12-.39,4.76,1.15,6.46,1.74,1.93,4.44,2.65,6.92,3a35.28,35.28,0,0,0,9,0c9.6-1.08,23-4.69,29,5.69,3.33,5.77,2.81,12.71,2.36,19.09a1.23,1.23,0,0,0,.91,1.19l2.48.34a1.28,1.28,0,0,0,1.53-.86,21.33,21.33,0,0,1,6.33-10c1.2-1.07-.56-2.82-1.75-1.76Z"></path> <path d="M641.59,167.69l-2.54,7c-.56,1.56-1,4-2.87,4.33-.78.15-1.9.62-2.68.34a2.79,2.79,0,0,1-1.39-1.55,9.35,9.35,0,0,1-.42-5.39,12.7,12.7,0,0,1,1-3.3,13,13,0,0,1,.85-1.49A7.33,7.33,0,0,1,634,167a1.71,1.71,0,0,0,.21-.26c.14-.3.48.4-.41-.14l-.45-.44.09.12a1.27,1.27,0,0,0,1.7.45,1.26,1.26,0,0,0,.45-1.7c-2.11-2.93-4.77,2.15-5.45,3.78a14.57,14.57,0,0,0-.9,8.2c.41,2.27,1.93,4.73,4.45,4.91a7,7,0,0,0,2-.3,10.47,10.47,0,0,0,2.06-.49,5,5,0,0,0,2.47-2.68c.7-1.58,1.22-3.25,1.81-4.88l1.89-5.23c.55-1.5-1.85-2.15-2.39-.66Z"></path> <path d="M644.32,181.81a23.68,23.68,0,0,1,4.81-.79,23.35,23.35,0,0,1,2.51,0s.53.05.35,0c0,0,.25.06.22.08-.21-.12-.21-.33,0-.64q.36-.81-.12-.54c-.18,0-.39.15-.57.21a24,24,0,0,1-9.37,1.25l1.07,1.86a3.94,3.94,0,0,1,2.22-1.89,1.27,1.27,0,0,0,.87-1.53,1.26,1.26,0,0,0-1.53-.86,6.5,6.5,0,0,0-3.7,3,1.26,1.26,0,0,0,1.07,1.87,25.88,25.88,0,0,0,6.34-.38,22.73,22.73,0,0,0,2.93-.71c.91-.28,2.27-.55,2.76-1.45a1.8,1.8,0,0,0-1-2.49,7.09,7.09,0,0,0-3-.34,26.58,26.58,0,0,0-6.52.92,1.24,1.24,0,0,0,.66,2.39Z"></path> <path d="M675.21,180.09a24.78,24.78,0,0,1,4.24,1.64c.34.17.68.34,1,.53a3.07,3.07,0,0,0,.31.17l.12.11v-.06l.26-.73c.05,0,0,0-.08,0a2.53,2.53,0,0,0-.36.07,3.91,3.91,0,0,1-1.08,0,17.7,17.7,0,0,1-4.25-1.3c-.64-.27-1.27-.57-1.89-.89-.36-.19-.71-.39-1.06-.59l-.52-.31c-.38-.21.09,0,.05.33l-.17.63c0,.06-.31.08.08,0l.28-.07a2.45,2.45,0,0,1,.81,0,6,6,0,0,1,1.64.54,1.28,1.28,0,0,0,1.7-.45,1.25,1.25,0,0,0-.45-1.69c-1.71-.79-4.3-1.58-5.86,0a1.74,1.74,0,0,0-.46,1.69,2.29,2.29,0,0,0,1.13,1.22,26,26,0,0,0,2.75,1.48,21.18,21.18,0,0,0,6.19,2,4.18,4.18,0,0,0,3.17-.64,2,2,0,0,0-.18-2.9,10.72,10.72,0,0,0-3.11-1.71,31.25,31.25,0,0,0-3.61-1.33,1.25,1.25,0,0,0-.66,2.4Z"></path> <path d="M659.08,193.67q-1.53,4-2.7,8.16a67.45,67.45,0,0,0-1.93,8.27c-.44,3,3.64,3.2,5.76,3.32a18.85,18.85,0,0,0,8-1.28c1.47-.57.83-3-.66-2.39a17.17,17.17,0,0,1-6.68,1.22,16.06,16.06,0,0,1-3.38-.44,6.63,6.63,0,0,0-.76-.2c.17-.32,0,1,.24-.11.11-.6.24-1.19.37-1.79a96.19,96.19,0,0,1,4.16-14.1c.57-1.5-1.83-2.14-2.39-.66Z"></path> <path d="M676.9,196.53a6.72,6.72,0,0,1,.52.95l-.12-.3a2.83,2.83,0,0,1,.21.74l0-.33a2,2,0,0,1,0,.49l0-.33a1.67,1.67,0,0,1-.08.3l.13-.3a1.75,1.75,0,0,1-.18.29l.2-.25a1.75,1.75,0,0,1-.24.23l.25-.19a1.35,1.35,0,0,1-.33.19l.3-.12a1.57,1.57,0,0,1-.31.08l.33,0h-.21l.33,0-.21,0,.3.12a.46.46,0,0,1-.15-.09l.25.2a.93.93,0,0,1-.14-.14l.19.25a1.35,1.35,0,0,1-.15-.26l.12.3a5.26,5.26,0,0,1-.24-1.18l0,.33a4.18,4.18,0,0,1,0-1.06l-.05.33a2.52,2.52,0,0,1,.14-.54l-.12.3a2.3,2.3,0,0,1,.23-.4l-.2.25A2.5,2.5,0,0,1,678,196l-.25.19a1.63,1.63,0,0,1,.34-.19l-.3.12a1.92,1.92,0,0,1,.32-.09l-.33,0h.27l-.33,0,.26.07-.3-.13.18.1-.26-.19a1,1,0,0,1,.15.14l-.2-.25a2.39,2.39,0,0,1,.13.21l-.13-.29a1.11,1.11,0,0,1,.09.31l0-.33a1.41,1.41,0,0,1,0,.29l0-.33a1.87,1.87,0,0,1-.07.22l.13-.3a.86.86,0,0,1-.1.16l.2-.25-.11.1.25-.19-.13.07.29-.12-.07,0a1.24,1.24,0,1,0,.66,2.39,1.91,1.91,0,0,0,1.34-1.44,2.38,2.38,0,0,0-.53-2,2.16,2.16,0,0,0-2.1-.62,2.86,2.86,0,0,0-1.71,1.22,3.42,3.42,0,0,0-.53,2.07,8.54,8.54,0,0,0,.13,1.12,4.73,4.73,0,0,0,.18.83,2.14,2.14,0,0,0,1.87,1.51,2.55,2.55,0,0,0,2.58-2.83,5.6,5.6,0,0,0-.9-2.32,1.25,1.25,0,0,0-2.15,1.26Z"></path> <path d="M646.36,195.62a3,3,0,0,1,.26.42l.12.25c.11.22-.11-.29,0,0a5.61,5.61,0,0,1,.24,1l-.05-.33a5.27,5.27,0,0,1,0,1.19l0-.33a3.88,3.88,0,0,1-.14.66.65.65,0,0,1,0,.13c-.06.19,0,0,0-.08-.07.14.06-.07.09-.1a.82.82,0,0,1,.25-.16c.12,0,.13-.05.05,0l.33,0h-.1l.33.05c-.12,0-.07,0,.15.07-.1-.07-.07,0,.11.09a.6.6,0,0,1-.08-.08c.13.17.15.2.08.1l-.1-.17c-.06-.11,0-.07,0,.13l-.06-.15a5.24,5.24,0,0,1-.34-1.17l0,.33a2.25,2.25,0,0,1,0-.52l0,.33c0-.13.06-.25.09-.38s0,0-.06.16a.54.54,0,0,1,0-.11l.1-.15c-.11.23-.15.19,0,.07s-.24.15-.07,0-.06,0-.09,0,.18-.05.22-.06l-.33.05a1.22,1.22,0,0,1,.27,0l-.33-.05.2.05s-.3-.15-.16-.07l.09.06.09.05s-.24-.21-.13-.09.23.27.09.08,0,0,0,.09.14.3,0,.09,0,0,0,.09a2.38,2.38,0,0,1,0,.26l0-.33a1.77,1.77,0,0,1,0,.4,1.24,1.24,0,0,0,1.24,1.24,1.27,1.27,0,0,0,1.24-1.24,3,3,0,0,0-1.59-2.88,2.31,2.31,0,0,0-2.14.07,2.74,2.74,0,0,0-1.19,1.58,3.69,3.69,0,0,0,.07,2,4.29,4.29,0,0,0,.93,1.84,1.7,1.7,0,0,0,2.47,0,3.65,3.65,0,0,0,.7-2.06,5.72,5.72,0,0,0-.92-3.69,1.24,1.24,0,1,0-2.15,1.25Z"></path> <path d="M637.29,208a2.07,2.07,0,0,1-3,.69c-1.37-.78-2-2.52-2.51-3.91a29.54,29.54,0,0,1-2.22-10.1,8.59,8.59,0,0,1,1-4.65c1.26-1.92,3.78-1.48,5.67-.92a1.25,1.25,0,0,0,.66-2.4c-2.34-.68-5.09-1-7.14.6a7.26,7.26,0,0,0-2.46,4.85,21.22,21.22,0,0,0,.33,7.28,42.36,42.36,0,0,0,1.7,5.7,13.68,13.68,0,0,0,2.15,4.28c1.92,2.35,6.53,3.18,8-.16.63-1.45-1.51-2.72-2.14-1.26Z"></path> <path d="M633.93,180.37a3.73,3.73,0,0,0-3.78-1.44,4.19,4.19,0,0,0-3.1,2.37,6,6,0,0,0,0,4.64,4.84,4.84,0,0,0,1.35,2,2.07,2.07,0,0,0,2.73,0,4.1,4.1,0,0,0,.88-2.64l.42-3a1.24,1.24,0,0,0-2.27-1,4.59,4.59,0,0,0,.32,5.41,1.25,1.25,0,0,0,1.95-.25,8,8,0,0,0,1-2.4,6.62,6.62,0,0,0,.11-2.73,2.13,2.13,0,0,0-1.92-1.8c-1.18,0-1.68,1.07-2,2a3.14,3.14,0,0,0,.12,2.76,2.47,2.47,0,0,0,2.15,1.12,1.93,1.93,0,0,0,1.83-1.94,2.31,2.31,0,0,0-4.06-1.3,3.88,3.88,0,0,0-.91,2.38,2.12,2.12,0,0,0,1.41,2.35,2.27,2.27,0,0,0,2.5-1.33,5.32,5.32,0,0,0-.23-5,2.19,2.19,0,0,0-1.24-1.08,1.71,1.71,0,0,0-1.62.46,3.72,3.72,0,0,0-.86,2.15,5.09,5.09,0,0,0,.18,2.57,2.92,2.92,0,0,0,2.28,2c1.29.13,2-1.17,2.25-2.25a5,5,0,0,0-.35-3.16,1.25,1.25,0,0,0-2.15,0,3.12,3.12,0,1,0,5.22-.07,1.26,1.26,0,0,0-2.14,0,4.93,4.93,0,0,0-.65,4.52,1.27,1.27,0,0,0,2.08.55,5.16,5.16,0,0,0,1-6.72,1.25,1.25,0,0,0-2-.25,5.18,5.18,0,0,0-1.17,2.81,3.26,3.26,0,0,0,1,2.87,1.87,1.87,0,0,0,3-1,6.75,6.75,0,0,0,.15-3.28,1.23,1.23,0,0,0-1-.89,1.25,1.25,0,0,0-1.24.59,5.44,5.44,0,0,0-.46,4.21,1.26,1.26,0,0,0,2.08.55,3.56,3.56,0,0,0,.52-3.87,1.25,1.25,0,0,0-2.15,0,6.74,6.74,0,0,0-.34,5.1,1.25,1.25,0,0,0,2.26.3,4.3,4.3,0,0,0,.38-4,2.08,2.08,0,0,0-1.36-1.06,1.62,1.62,0,0,0-1.18.17,1.52,1.52,0,0,0-.68,1.25,1.24,1.24,0,0,0,1.24,1.24,1.27,1.27,0,0,0,1.24-1.24v.2l-.32.55a1,1,0,0,1-.88.24c-.17-.08-.2-.09-.08,0l-.11-.09c.09.09.08.08,0-.06s-.07-.14,0,0a1.05,1.05,0,0,1,.05.19c0,.15,0,.16,0,0a1.21,1.21,0,0,1,0,.19,3.17,3.17,0,0,1,0,.44c0-.21,0,.14-.05.17s-.13.36,0,.18a3.83,3.83,0,0,1-.25.44l2.27.29a6.61,6.61,0,0,1-.24-.9c0,.18,0-.28,0-.33a3.53,3.53,0,0,1,0-.46s0-.46,0-.27a3.73,3.73,0,0,1,.09-.46c0-.15.08-.3.13-.45l.09-.25c0,.1,0,.07,0-.07h-2.15c-.08-.19,0,.17,0,.25,0-.13,0-.09,0,0s0,.34,0,.18,0,.1,0,.12l0,.12c.05-.11,0,.09-.06.11s-.17.24,0,.07l2.08.55c0-.12-.08-.25-.11-.37s0-.39,0-.18a4.21,4.21,0,0,1,0-.71c0-.13,0,.08,0-.12l.09-.38s.13-.37.06-.19c0-.12.11-.23.17-.35l-2.27-.29a5.47,5.47,0,0,1,0,1.4c0,.13-.07.26-.09.4s0,0,.07-.06a.69.69,0,0,1,.76-.13c.17.09.15.17,0,0s0-.07,0,0a.84.84,0,0,1,0-.17c0-.09,0-.08,0,0,0-.06,0-.12,0-.18v-.38a1.1,1.1,0,0,1,0-.18c0,.1,0,.11,0,0a2.49,2.49,0,0,1,.09-.37s.12-.33.08-.26.11-.19.14-.24.24-.35.13-.21l-1.95-.25a3.21,3.21,0,0,1,.19.31s.16.32.1.18.07.2.08.24a2.64,2.64,0,0,1,.07.3c0,.06,0,.36,0,.07,0,.11,0,.21,0,.31v.32c0,.07,0,.13,0,.2,0-.14,0-.16,0-.07s-.09.44-.16.66c0,.06-.15.33,0,.08l-.14.28c-.05.09-.11.17-.17.26-.14.24.12-.1-.05.08a4.18,4.18,0,0,1-.53.5l2.08.54a3.53,3.53,0,0,1-.15-.46s0-.39,0-.15c0-.14,0-.28,0-.42s0-.46,0-.22c0-.12,0-.24.07-.35s.16-.48.08-.28a4.11,4.11,0,0,1,.43-.73h-2.14l.12.2c.07.08,0-.15,0-.05a.9.9,0,0,0,.06.22c0-.09,0-.22,0-.06a1,1,0,0,0,0,.18c0-.25,0-.13,0,0s0,.12-.05.18-.07.13,0,0a1.4,1.4,0,0,1-.09.17s-.17.23-.06.1,0,0,0,0a1.29,1.29,0,0,1-.17.16c.08-.06.16-.1,0,0s-.25.08-.09.05h-.07c-.16,0,.32,0,0,0h-.19c.09,0,.21,0,.07,0s.12.1,0,0l-.15-.09c-.12,0,.14.16,0,0l-.13-.12c-.18-.18.06.12,0,0s-.07-.11-.1-.16-.07-.14,0,0l-.06-.18c0-.07,0-.15-.05-.22s0,.17,0,.06a.81.81,0,0,0,0-.22c0,.08-.06.21,0,.06l.06-.17c-.07.26,0,.06,0,0h-2.15c-.08-.2.06.19.06.19l.06.25c.08.34,0-.18,0,.18,0,.1,0,.21,0,.32s0,.32,0,.12c0,.1,0,.21-.07.31l-.09.31c-.09.24,0,0-.09.18l-.06.1a.62.62,0,0,1,.52-.26l.31.08-.1-.06.07.06-.15-.14c-.21-.17,0,.11,0,0l-.13-.21c-.15-.24,0,.12,0,0a1.82,1.82,0,0,0-.07-.25c0-.1-.06-.31,0-.09a3.25,3.25,0,0,1,0-.54c0-.12,0-.23,0-.34,0-.35,0,.15,0-.05s.07-.37.11-.55l.08-.26.06-.2,0,.11.05-.09a.64.64,0,0,1-.63.3c-.89,0-.69-.52-.54-.19.05.11.14.21.19.32s.15.34.1.19a2.91,2.91,0,0,1,.2,1c0,.13,0,.25,0,.38,0,.38,0-.12,0,.1a4.44,4.44,0,0,1-.16.6c-.06.2.14-.19,0,.1,0,0-.2.3-.1.16l0,0c-.11.1-.11.11,0,0a1,1,0,0,1,.56.05l.23.23c.05.15.05.15,0,0v-.05a2.62,2.62,0,0,1,0-.28c0,.26,0,0,0,0l.06-.26s.14-.32.06-.16.09-.14.08-.14h0l.07-.07-.09.06.18-.1c0,.06-.37.06-.21.07s-.31,0,0,0l-.12,0c.1.06.11.07,0,0s.11.09.08.08-.16-.33-.13-.21,0-.26,0-.29a.57.57,0,0,1,.32-.39c.08,0,.38,0,.16-.06.31,0,.12,0,0,0s.3.06,0,0c.17,0,.12.1,0,0s.1.18.11.2c-.14-.32,0,.06,0-.12s0-.32,0-.13a2.21,2.21,0,0,1,.11-.46l.12-.33s.17-.38.07-.18l0-.1c.08-.12.07-.12,0,0a.64.64,0,0,1-.73.16.43.43,0,0,1-.3-.14l-.08-.1a1,1,0,0,1,.1.17c-.09-.19,0,0,0,.1-.08-.32,0,.07,0,.14a2.67,2.67,0,0,1,0,.4c0,.11,0,.22,0,.34a1.5,1.5,0,0,1,0,.2c0-.11,0-.09,0,.06s-.11.53-.18.79a5.08,5.08,0,0,1-.58,1.29l1.94-.25c.16.19-.09-.18-.12-.22a1.24,1.24,0,0,0-.1-.2c.06.12.06.11,0,0s-.08-.29-.11-.44c.05.27,0-.17,0-.24s0-.51,0-.23a3.13,3.13,0,0,1,.1-.44,1.87,1.87,0,0,1,.07-.22c0,.13,0,.12,0,0s.15-.26.24-.39l-2.27-.95-.56,3.88-.06.45s-.11.29-.09.33c-.07-.14.31-.33.36-.35a.45.45,0,0,1,.2,0c.06,0,.22.1.12,0l-.14-.09s.12.11,0,0l-.12-.12s.1.13,0,0a4.15,4.15,0,0,1-.4-.75c-.06-.13,0,0,0,0l-.06-.17c-.05-.12-.08-.24-.12-.36l-.09-.36c0-.06-.07-.42,0-.22a4.17,4.17,0,0,1,0-.79,1.09,1.09,0,0,1,0-.18s0,.18,0,0,.06-.27.1-.41.07-.23.11-.34c-.07.18.05-.08.08-.13l.13-.21s.11-.15,0,0,.11-.12.15-.16.22-.17,0-.05l.24-.16.26-.14h0l.07,0,.38-.1.14,0c-.09,0-.2,0,0,0h.47c-.09,0-.21,0-.06,0s.21.07.31.08-.06,0-.08,0l.2.1s.07.06.11.07-.15-.13,0,0,.29.32.11.09a1.28,1.28,0,0,0,1.7.45,1.25,1.25,0,0,0,.44-1.7Z"></path> <path d="M633,166.49a2.75,2.75,0,0,0-4.29-.24c-1.17,1.26-1.4,3.24-1.55,4.88a12,12,0,0,0,2.86,9.39,1.24,1.24,0,0,0,1.63.1A1.26,1.26,0,0,0,632,179c-1.58-3.64-3.72-8.77-.72-12.31.86-1-.23-2.73-1.51-2a7.56,7.56,0,0,0-3.37,6.78c.13,3.06,1.8,5.73,3.72,8a1.26,1.26,0,0,0,1.76,0,1.27,1.27,0,0,0,0-1.75c-1.43-1.7-2.83-3.78-3-6.06A5.16,5.16,0,0,1,631,166.9L629.47,165a9.84,9.84,0,0,0-2.17,7.11,25.25,25.25,0,0,0,2.51,8.2l2-1.51a8.93,8.93,0,0,1-2.2-6.15,13.83,13.83,0,0,1,.37-3.33,2.65,2.65,0,0,1,.58-1.35c.13-.11.21-.07.34-.14s.13.16,0,0c.89,1.32,3,.08,2.15-1.25Z"></path> <path d="M629.93,169.5a1.24,1.24,0,0,0,0-2.48,1.24,1.24,0,0,0,0,2.48Z"></path> <path d="M653.53,220.43l10.85.26,5.21.12,2.6.06,1.52,0,.65,0c.52,0,.58,0,.17-.06l-.57-.74c.06-.23.06-.23,0,0s-.08.31-.13.46c-.08.32-.17.63-.26.94-.18.57-.37,1.14-.58,1.69a14.94,14.94,0,0,1-1.68,3.28,7.54,7.54,0,0,1-6.14,3.45c-5.68.07-9.27-5-10.55-10a1.25,1.25,0,0,0-2.4.66,16.83,16.83,0,0,0,5.94,9.5,11.16,11.16,0,0,0,10.54,1.62c3.37-1.35,5.37-4.45,6.63-7.7.31-.81.58-1.64.81-2.47s.57-1.75,0-2.5-1.61-.6-2.42-.62l-3.69-.09L653.53,218a1.24,1.24,0,0,0,0,2.48Z"></path> <path d="M658.81,227.27a15,15,0,0,1,4.29-3.91,6.48,6.48,0,0,1,2.59-1.18c.92,0,1.17,1.45,1.16,2.13a1.25,1.25,0,0,0,2.12.87c1.11-.91,2.71-2.19,4.12-1.12a1.24,1.24,0,0,0,1.69-.45,1.26,1.26,0,0,0-.44-1.69c-2.4-1.83-5.19-.07-7.12,1.51l2.11.88a4.9,4.9,0,0,0-1.79-4c-1.38-1-3-.46-4.35.22a17.57,17.57,0,0,0-6.52,5.52,1.24,1.24,0,0,0,.44,1.69,1.26,1.26,0,0,0,1.7-.44Z"></path> <path d="M655.32,219.88a1.5,1.5,0,0,0-1.45,1.13,3,3,0,0,0,.12,1.55,16.75,16.75,0,0,0,1,2.9,1.24,1.24,0,0,0,1.4.57,1.26,1.26,0,0,0,.91-1.2l-.4-3.34-2.44.33a12.07,12.07,0,0,0,1,3.58,1.25,1.25,0,0,0,2.31-.63l-.06-3.68-1.87,1.07c.27.19-.13-.15.1.08l.15.16c.23.23-.11-.19.08.09l.15.23a10.4,10.4,0,0,1,.52,1.06,1.25,1.25,0,0,0,1.4.57,1.32,1.32,0,0,0,.91-1.2l.28-2.46H657l.15,2.19c.07.86,1,1.65,1.87,1.07a8.36,8.36,0,0,0,1.84-1.67,1.24,1.24,0,0,0-1.75-1.75l-1.68,1.65a1.26,1.26,0,0,0,0,1.76,1.28,1.28,0,0,0,1.76,0l.26-.21.31-.23c.27-.19.54-.36.82-.53s.53-.3.8-.44l.41-.2.23-.1.07,0-1-2.27-1.09.78a1.27,1.27,0,0,0-.51,1.55A1.23,1.23,0,0,0,661,223l1.78-.7a1.24,1.24,0,1,0-.66-2.39l-1.78.7.95,2.27,1.09-.78a1.26,1.26,0,0,0,.51-1.55,1.22,1.22,0,0,0-1.46-.72,15.1,15.1,0,0,0-4,2.37l1.76,1.76,1.67-1.66-1.75-1.75a7.48,7.48,0,0,1-1.34,1.28l1.87,1.07-.16-2.19a1.24,1.24,0,0,0-2.48,0l-.28,2.46,2.31-.63a5.52,5.52,0,0,0-1.89-2.5,1.24,1.24,0,0,0-1.86,1.07l.06,3.68,2.31-.62s-.16-.36-.08-.18c0-.12-.1-.25-.14-.37a8.3,8.3,0,0,1-.22-.82c-.13-.54-.21-1.08-.29-1.62a1.23,1.23,0,0,0-1.37-.89,1.21,1.21,0,0,0-1.07,1.22l.4,3.34,2.31-.62a13.32,13.32,0,0,1-.59-1.57q-.14-.44-.24-.87a1.44,1.44,0,0,1-.09-.4c0,.23,0,.47-.19.65l-.55.32-.2,0a1.24,1.24,0,1,0,0-2.48Z"></path> <path d="M668.34,222.19l.26.08c.16,0-.06,0-.1-.05a1.19,1.19,0,0,1,.16.08,1.14,1.14,0,0,1,.23.15s.18.12,0,0,0,0,0,0v-1.75l-.08.09c.17-.12.22-.15.13-.1s0,0,.16-.06l-.11,0,.33,0h-.18l.33,0h-.06l.74,1.83c-.25.32,0,0,.12-.1s.23-.13,0,0l.16-.11.18-.1c.19-.11-.28.09,0,0l.38-.11-1.52-.87,0,.12-.05-.33a1.08,1.08,0,0,1,0,.18l0-.33c0,.2.13-.21,0-.09s.23-.25.07-.09a1.26,1.26,0,0,0-.2,1.5,1.62,1.62,0,0,0,1.36.77,2.9,2.9,0,0,0,.93-.18l1.69-.55a1.24,1.24,0,1,0-.66-2.4l-1.12.37a7.66,7.66,0,0,1-1,.32l.33,0h-.17l.33,0c-.09,0-.07,0,.05,0a.9.9,0,0,1,.44.38l-.2,1.5a1.88,1.88,0,0,0,.5-1.87,1.27,1.27,0,0,0-1.53-.86,3.41,3.41,0,0,0-1.15.47,4.24,4.24,0,0,0-1.08,1,1.25,1.25,0,0,0,.74,1.83,2.15,2.15,0,0,0,1,0,2,2,0,0,0,.86-.56,1.29,1.29,0,0,0,.36-.87,1.25,1.25,0,0,0-.36-.88,4,4,0,0,0-1.7-1,1.24,1.24,0,1,0-.66,2.4Z"></path> </g> <g id="python"> <path d="M230.31,869.31h.86a1.08,1.08,0,0,0,.5-.12,1.08,1.08,0,0,0,.68-.68,1,1,0,0,0,.12-.5l-.05-.35a1.26,1.26,0,0,0-.33-.57l-.27-.2a1.25,1.25,0,0,0-.65-.18h-.86a1,1,0,0,0-.5.11,1,1,0,0,0-.42.27,1,1,0,0,0-.26.42,1,1,0,0,0-.12.5l.05.34a1.35,1.35,0,0,0,.33.58l.27.2a1.35,1.35,0,0,0,.65.18Z"></path> <path class="cls-8" d="M283.34,699.3l65.44-11.41s48.25,7.48,59,9.78,56.11,10.5,56.11,10.5-91.5,29.36-103.48,33.92-22.94,9.64-22.94,9.64-10.14-17.6-26-29.56S283.34,699.3,283.34,699.3Z"></path> <path class="cls-9" d="M123.48,653.94l-1,5L192.22,719l15.17,141.37,131.3,67.83s82.7-34.86,91.85-39.39,42-28.44,42-28.44,2.06-1.85,3.58-12.17,6.49-56.68,6.72-60,.42-15.13.42-15.13l15.11-6.32s14.77-10.08,20.87-14.41S544.1,736.48,549.54,734s16.67-8.3,16.67-8.3l2.64-10.06-102.67-6.12s-74.55,22.92-84.76,25.56-46.05,17.23-46.05,17.23l.87-3.3s-28.65-33.1-49.29-45.65-30.13-20.77-30.13-20.77S202,665.62,169.06,658.91,123.48,653.94,123.48,653.94Z"></path> <path class="cls-10" d="M155.76,655.33s-3-7.92-6-12-7-9-7-9l1.69-3.37s85.48-21.35,130.1-23.15,39.58-1,39.58-1,17,33.4,24,52.06,10.64,29,10.64,29l-67,12.16-24.91-17.49s-74.84-19.69-84.42-23A92.1,92.1,0,0,0,155.76,655.33Z"></path> <path class="cls-10" d="M381.34,615.71s-12.69,25.23-16.9,35-15.66,37.22-15.66,37.22l95.37,16.5,22,5.1,31.67,1.89s16.27-40.86,24.31-54.26,25.12-36.54,25.12-36.54l-2.57-5s-96.59,2-106.78,1.47S381.34,615.71,381.34,615.71Z"></path> <path d="M191.34,718.52l5.92,55.05,6,55.3,3.34,31c.17,1.65,2.77,1.66,2.59,0l-5.92-55-5.95-55.3-3.34-31c-.17-1.64-2.77-1.66-2.59,0Z"></path> <path d="M206.73,861.45c19.5,11.69,39.67,22.23,60,32.36,16.94,8.44,33.94,16.77,50.9,25.19,6.82,3.38,13.65,6.74,20.4,10.28,1.48.77,2.79-1.47,1.31-2.25-14.28-7.47-28.83-14.45-43.29-21.59s-29-14.14-43.33-21.61C237.65,876,222.64,868,208,859.2a1.3,1.3,0,0,0-1.31,2.25Z"></path> <path d="M335,753.85l.47,67.33.47,66.84.26,37.91a1.3,1.3,0,0,0,2.6,0l-.47-67.34-.47-66.83-.27-37.91a1.3,1.3,0,0,0-2.59,0Z"></path> <path d="M191.12,719.81q28,7.92,56.43,14.58t56.8,12q16.17,3,32.43,5.67c1.63.26,2.34-2.24.69-2.51Q308.7,744.89,280.15,739t-56.54-13.1q-16-4.07-31.8-8.54a1.3,1.3,0,0,0-.69,2.5Z"></path> <path d="M121.52,659.83q26.69,24,54.16,47,7.78,6.52,15.62,13c1.28,1,3.13-.78,1.84-1.84q-27.67-22.81-54.6-46.54-7.64-6.72-15.19-13.51c-1.24-1.11-3.08.72-1.83,1.84Z"></path> <path d="M123.19,659.15q26.42,3.18,52.51,8.49,25.88,5.26,51.29,12.61,14.35,4.14,28.51,8.94c1.59.54,2.27-2,.69-2.5q-25.24-8.55-51.13-15T152.88,660.8q-14.79-2.46-29.69-4.24c-1.65-.2-1.64,2.4,0,2.59Z"></path> <path d="M255.57,682.9c.09.28.17.55.24.83l.06.32c0,.07,0,.14,0,.22,0-.17,0-.18,0,0a8.23,8.23,0,0,1,0,1.57c0,.06,0,.46,0,.14,0,.14,0,.28-.08.42s-.11.5-.18.74-.16.48-.25.71c.12-.29-.07.14-.09.19s-.13.25-.2.38a1.3,1.3,0,0,0,2.24,1.31,9.38,9.38,0,0,0,.71-7.49,1.3,1.3,0,0,0-2.5.69Z"></path> <path d="M255.12,688.74c4.46,4.86,10.49,7.68,16.17,10.83s11.46,6.73,16.93,10.5a207.1,207.1,0,0,1,30.2,25.4,210.33,210.33,0,0,1,14.85,16.86c1,1.31,2.86-.54,1.83-1.84A209.72,209.72,0,0,0,275.55,699c-6.35-3.67-13.55-6.6-18.6-12.1-1.13-1.23-3,.61-1.83,1.84Z"></path> <path d="M256.45,683.52c4.16,5.28,9.82,9,15.56,12.37,5.93,3.46,11.86,6.86,17.55,10.72a197.91,197.91,0,0,1,46.78,44.63c1,1.32,3.24,0,2.24-1.31a203.81,203.81,0,0,0-62-54.42c-6.66-3.81-13.45-7.71-18.27-13.83-1-1.31-2.85.54-1.83,1.84Z"></path> <path d="M124,658.23a5.23,5.23,0,0,1,.32-1l-.13.31a5.66,5.66,0,0,1,.72-1.24l-.2.26a5.52,5.52,0,0,1,.78-.82,1.3,1.3,0,0,0,.39-.92,1.33,1.33,0,0,0-.39-.92,1.25,1.25,0,0,0-.91-.38,1.49,1.49,0,0,0-.92.38,6.73,6.73,0,0,0-2.17,3.68,1.39,1.39,0,0,0,.13,1,1.36,1.36,0,0,0,.78.59,1.29,1.29,0,0,0,1-.13,1.32,1.32,0,0,0,.6-.77Z"></path> <path d="M123.48,655.24a287,287,0,0,1,52.88,6.49c8.74,1.9,17.4,4.13,26.08,6.3,8.51,2.13,17,4.2,25.52,6.48a281.67,281.67,0,0,1,28.26,8.94c1.57.6,2.24-1.91.69-2.51-16.52-6.33-33.78-10.42-50.91-14.7-17.33-4.32-34.6-8.75-52.33-11.13a290.64,290.64,0,0,0-30.19-2.47c-1.67,0-1.67,2.55,0,2.6Z"></path> <path d="M283.68,700.55q25.59-5.59,51.47-9.61,7.41-1.14,14.84-2.16c1.65-.22.95-2.73-.69-2.5q-25.93,3.54-51.63,8.69-7.35,1.47-14.68,3.08c-1.63.36-.94,2.86.69,2.5Z"></path> <path d="M143.88,632.34A94.63,94.63,0,0,1,159.25,656c.69,1.51,2.93.2,2.24-1.31a96.46,96.46,0,0,0-15.78-24.17c-1.11-1.25-2.94.59-1.83,1.83Z"></path> <path d="M142.09,635.68a87.3,87.3,0,0,1,13.25,20.39c.7,1.51,2.94.2,2.24-1.31a89.58,89.58,0,0,0-13.66-20.91c-1.1-1.27-2.93.58-1.83,1.83Z"></path> <path d="M143.32,630.36a13.36,13.36,0,0,0-1.82,3.69,1.3,1.3,0,0,0,.91,1.59,1.31,1.31,0,0,0,1.59-.9c.11-.35.24-.68.38-1l-.13.31a12.16,12.16,0,0,1,1.32-2.36,1.34,1.34,0,0,0,.13-1,1.36,1.36,0,0,0-.6-.77,1.3,1.3,0,0,0-1-.13,1.48,1.48,0,0,0-.78.59Z"></path> <path d="M145.92,631.2c19.81-6.11,40.45-8.62,60.94-11.24,10.29-1.32,20.54-2.77,30.78-4.44,10.4-1.69,20.8-3.49,31.24-4.93a268.09,268.09,0,0,1,35.67-2.83,1.3,1.3,0,0,0,0-2.6c-21.21.09-42.17,3.67-63,7.11-10.43,1.72-20.86,3.31-31.35,4.67-10.25,1.32-20.51,2.56-30.72,4.17a245.2,245.2,0,0,0-34.21,7.59c-1.59.49-.91,3,.69,2.5Z"></path> <path d="M312.39,607.78l.18-.17-.26.21a1.54,1.54,0,0,1,.39-.23l-.31.13a1.76,1.76,0,0,1,.5-.13l-.34,0a2.26,2.26,0,0,1,.52,0l-.34,0a1.91,1.91,0,0,1,.47.12l-.31-.13a1.9,1.9,0,0,1,.39.23l-.26-.21.18.17a1.36,1.36,0,0,0,.92.38,1.32,1.32,0,0,0,.92-.38,1.36,1.36,0,0,0,.38-.92,1.43,1.43,0,0,0-.38-.92,3.21,3.21,0,0,0-4.48,0,1.35,1.35,0,0,0-.39.92,1.33,1.33,0,0,0,.39.92,1.3,1.3,0,0,0,.91.38,1.36,1.36,0,0,0,.92-.38Z"></path> <path d="M314,608.53a604.52,604.52,0,0,1,27.16,61.82q3.33,8.88,6.37,17.88c.54,1.58,3,.9,2.51-.69a613,613,0,0,0-25.36-63q-4.08-8.71-8.43-17.28c-.76-1.49-3-.18-2.25,1.31Z"></path> <path d="M350.71,688.07q10.46-28.49,23.7-55.83,3.73-7.71,7.69-15.33c.77-1.48-1.47-2.8-2.24-1.31q-14.07,27.12-25.43,55.53-3.23,8.08-6.22,16.25c-.58,1.57,1.93,2.25,2.5.69Z"></path> <path d="M495,707.2a362.77,362.77,0,0,1,37.68-72Q539,625.8,546,616.77h-2.24l2.41,3.33.2-1.57a312.32,312.32,0,0,0-40.86,69.41q-4.46,10.45-8.14,21.2c-.55,1.59,2,2.27,2.5.69a310,310,0,0,1,35.08-71q6.28-9.45,13.26-18.44a1.35,1.35,0,0,0,.2-1.57L546,615.46a1.33,1.33,0,0,0-2.24,0,365.18,365.18,0,0,0-42.27,69.77q-4.83,10.49-9,21.28c-.61,1.56,1.9,2.23,2.5.69Z"></path> <path d="M381.34,617q31.86,1.1,63.75,1.33t63.77-.41q17.92-.36,35.85-1c1.67-.06,1.67-2.65,0-2.59q-31.86,1.13-63.75,1.38t-63.76-.34q-17.94-.35-35.86-1c-1.67-.06-1.67,2.53,0,2.59Z"></path> <path d="M348.94,688.43c30.12,6.41,60.54,11.32,90.88,16.52l26,4.47c1.63.28,2.33-2.22.69-2.5-30.38-5.22-60.82-10.18-91.11-15.86q-12.93-2.41-25.79-5.13c-1.62-.35-2.32,2.16-.69,2.5Z"></path> <path d="M336,753.42c15.52-7.25,31.76-12.75,48.08-17.85,16.95-5.31,33.95-10.44,50.93-15.64L464.19,711c1.59-.49.91-3-.69-2.51l-52.1,16c-16.66,5.1-33.41,10-49.83,15.82-9.1,3.24-18.1,6.8-26.86,10.9-1.51.7-.19,2.94,1.31,2.24Z"></path> <path d="M337.08,753a126.92,126.92,0,0,1,41.71,21.25q4.65,3.59,8.94,7.6c1.42,1.32,2.8,2.68,4.16,4.07s2.52,2.74,4.3,3.3c2,.61,4.1,0,6-.48l6.75-1.57L422.49,784q13.49-3.12,27-6.25c8.34-1.94,16.68-4,24.82-6.65a115.1,115.1,0,0,0,23.15-10.32c7.13-4.26,13.74-9.29,20.42-14.22a179,179,0,0,1,21.2-13.9c7.69-4.15,15.68-7.7,23.34-11.9q2.85-1.56,5.61-3.25c1.42-.87.12-3.12-1.31-2.24-7.38,4.53-15.25,8.16-23,12.05a163.89,163.89,0,0,0-21.6,12.94c-6.76,4.82-13.29,10-20.19,14.59a110.15,110.15,0,0,1-22.13,11.55c-16.27,6.2-33.61,9.45-50.52,13.37L402.5,786c-1.88.44-4.37,1.47-6.2.43-1.61-.92-2.88-2.69-4.19-4q-4.14-4.1-8.65-7.79a129.69,129.69,0,0,0-40.14-22.41c-1.83-.63-3.69-1.21-5.55-1.76a1.3,1.3,0,0,0-.69,2.5Z"></path> <path d="M464.76,710.82q40.13,1.57,80.2,4.12,11.44.73,22.89,1.54c1.67.12,1.66-2.48,0-2.59q-40.05-2.83-80.17-4.69-11.46-.53-22.92-1c-1.67-.06-1.67,2.53,0,2.6Z"></path> <path d="M396.57,787.58a5.92,5.92,0,0,0-.62,7.29,1.33,1.33,0,0,0,1.78.47,1.31,1.31,0,0,0,.46-1.78,4.77,4.77,0,0,1-.36-.62c-.08-.15,0,0,0,.09s-.05-.12-.07-.19-.08-.23-.11-.34-.06-.24-.08-.36,0-.23,0,0,0,0,0-.07a4.43,4.43,0,0,1,0-.73c0-.05,0-.1,0-.16s0,.05,0,.11c0-.12,0-.24.06-.36a5.54,5.54,0,0,1,.22-.69c.05-.15-.13.26,0,0a.61.61,0,0,1,.07-.14,2.58,2.58,0,0,1,.18-.32l.11-.16c.09-.15,0,0-.06.06s.17-.2.27-.3a1.3,1.3,0,1,0-1.84-1.83Z"></path> <path d="M335.58,755.88q13.55,6.48,26.68,13.75c4.25,2.36,8.56,4.69,12.66,7.33a26.87,26.87,0,0,1,5.46,4.51c1.57,1.71,3,3.57,4.57,5.26a45,45,0,0,0,11.81,8.91c1.48.77,2.79-1.47,1.31-2.24a42.94,42.94,0,0,1-10.55-7.75c-3.32-3.34-5.9-7.17-9.8-9.93a138.34,138.34,0,0,0-12.48-7.4q-6.5-3.63-13.09-7.07-7.57-3.93-15.26-7.61c-1.5-.71-2.82,1.52-1.31,2.24Z"></path> <path d="M398,795.35l41.47-8.57c6.71-1.39,13.43-2.73,20.12-4.17a94.91,94.91,0,0,0,18.31-5.51c3-1.3,5.8-2.88,8.71-4.29s6.05-2.48,9.13-3.63a61.26,61.26,0,0,0,16-9.42c5-3.87,10-7.76,15.22-11.3s10.57-6.73,16.09-9.69a194.41,194.41,0,0,1,19.09-8.88c2.71-1.1,5.22-2.47,6.13-5.43.83-2.67.07-5.84,1.78-8.19,1-1.35-1.26-2.65-2.24-1.31-1.51,2.07-1.41,4.64-1.69,7.07a6,6,0,0,1-1.2,3.29,8.93,8.93,0,0,1-3.47,2.06c-5.68,2.32-11.28,4.78-16.74,7.59a194.12,194.12,0,0,0-31.21,20.14c-4.78,3.76-9.59,7.62-15.14,10.21-2.89,1.35-6,2.26-8.92,3.43s-5.8,2.67-8.65,4.11c-11.71,5.94-24.85,7.88-37.58,10.51l-45.87,9.48c-1.64.34-.94,2.84.69,2.5Z"></path> <path d="M445.46,755.17a53.7,53.7,0,0,1,10.73,6.53,1.36,1.36,0,0,0,1.84,0,1.32,1.32,0,0,0,0-1.84,56.45,56.45,0,0,0-11.26-6.93,1.35,1.35,0,0,0-1.78.46,1.31,1.31,0,0,0,.47,1.78Z"></path> <path d="M482.37,773.68q-1.58,31.73-5.93,63.22-1.23,8.91-2.7,17.79c-.27,1.64,2.23,2.34,2.5.69q5.19-31.56,7.59-63.49.69-9.09,1.14-18.21c.08-1.67-2.52-1.66-2.6,0Z"></path> <path d="M339,929.41q31.79-13.33,63.43-27c10.35-4.47,20.82-8.75,31-13.58A173.6,173.6,0,0,0,458.63,874c6.58-4.61,12.88-9.73,17.68-16.26,1-1.34-1.27-2.64-2.25-1.31-.05.08-.25.34-.18.25l-.73.92c-1,1.19-2,2.35-3.07,3.48a70.78,70.78,0,0,1-10.58,9.13,181.75,181.75,0,0,1-24.61,15.07c-9.81,4.87-20,9-30.09,13.33q-15.57,6.74-31.17,13.39Q356,919.51,338.35,926.9c-1.52.64-.85,3.15.69,2.51Z"></path> <path d="M246.63,863.36l0-19a1.3,1.3,0,0,0-2.55-.34,21.46,21.46,0,0,1-4.43,8.33l2,1.57,4.84-9.6-2.37-.31a16.16,16.16,0,0,0,5.76,7.35c1.37,1,2.67-1.29,1.31-2.25a13,13,0,0,1-4.57-5.79c-.37-1-1.82-1.41-2.37-.31l-4.84,9.6c-.62,1.24,1,2.75,2,1.57a24.2,24.2,0,0,0,5.11-9.47l-2.55-.35,0,19a1.3,1.3,0,0,0,2.59,0Z"></path> <path d="M260.85,850.55v19.22a1.3,1.3,0,0,0,2.59,0V850.55a1.3,1.3,0,0,0-2.59,0Z"></path> <path d="M260.09,850.21a29.44,29.44,0,0,1-3.53,7l2.24,1.31,4.48-8.62H261a26.36,26.36,0,0,0,5,7.13c1.17,1.19,3-.64,1.83-1.84a24.34,24.34,0,0,1-4.61-6.6,1.31,1.31,0,0,0-2.24,0l-4.48,8.62a1.3,1.3,0,1,0,2.24,1.31,32.07,32.07,0,0,0,3.8-7.64,1.3,1.3,0,1,0-2.51-.69Z"></path> <path d="M274.55,848.16a301.94,301.94,0,0,0,.75,35.08,1.31,1.31,0,0,0,1.3,1.3c7.9-.6,14.61,4.47,20.82,8.65a92.88,92.88,0,0,0,22.34,11.12,1.31,1.31,0,0,0,1.6-.91,126.79,126.79,0,0,0-.25-37.21c-.26-1.65-2.76-1-2.51.69a122.23,122.23,0,0,1,.25,35.83l1.6-.91a94.07,94.07,0,0,1-22.75-11.54c-6.28-4.25-13.15-8.92-21.1-8.32l1.3,1.3a304.17,304.17,0,0,1-.76-35.08c.06-1.67-2.53-1.67-2.59,0Z"></path> <path d="M273.91,851.18a126.14,126.14,0,0,1,44.75,16.75c1.43.88,2.74-1.37,1.31-2.24a128.12,128.12,0,0,0-45.37-17c-1.63-.27-2.33,2.23-.69,2.51Z"></path> <path d="M281.84,864.5l26.33,6c1.63.36,2.33-2.14.69-2.51l-26.33-6c-1.63-.37-2.32,2.13-.69,2.5Z"></path> <path d="M287,874.67a15.69,15.69,0,0,1,9.5,3,1.31,1.31,0,0,0,1.77-.47,1.33,1.33,0,0,0-.46-1.78A18.09,18.09,0,0,0,287,872.07a1.3,1.3,0,0,0,0,2.6Z"></path> <path d="M346.26,689.71v20.68a1.3,1.3,0,0,0,2.59,0V689.71a1.3,1.3,0,0,0-2.59,0Z"></path> <path class="cls-4" d="M324.23,369.09A164.65,164.65,0,0,0,281.08,397c-16.25,15-15.32,23.66-7.51,35.73h0l10.31,15.93,43.17-27.94,3.44,5.32-59.37,38.42c-12.55,8.12-18.79,22.56-13.23,38.68,6.34,18.5,12.58,28.52,27.48,42.47C296.46,556,309.49,560.15,322,552l14.84-9.6-12.36-19.1c-8.94-13.8-4.49-34,10.15-43.48l43.16-27.93a25.49,25.49,0,0,0,7.84-35.21L359.9,376.88C352.56,365.55,337.18,363.4,324.23,369.09ZM295.9,425.85a9.49,9.49,0,1,1,2.94-13.2A9.55,9.55,0,0,1,295.9,425.85Z"></path> <path d="M323.58,368a165.22,165.22,0,0,0-38,23.43c-5.23,4.31-10.4,9-14.31,14.53-2.69,3.84-4.64,8.36-4.41,13.14.25,5.24,2.82,10,5.6,14.34l1.47-1.91h0a1.32,1.32,0,0,0-1.47,1.91l10.31,15.92a1.32,1.32,0,0,0,1.78.47l14.57-9.43,23.24-15.05,5.36-3.46-1.78-.47,3.44,5.32.47-1.78-22.52,14.58-32.67,21.14a64.33,64.33,0,0,0-9.79,7.11,32.92,32.92,0,0,0-10,28.41c.77,5.65,2.94,11.09,5.11,16.33a91.29,91.29,0,0,0,6.77,13.43,86.21,86.21,0,0,0,9.13,12,95.61,95.61,0,0,0,12.85,12.28,34.51,34.51,0,0,0,16.1,7.19,26,26,0,0,0,16.35-3.32c5.05-2.87,9.84-6.3,14.71-9.46l1.62-1.05a1.31,1.31,0,0,0,.47-1.77l-11.07-17.11a34.38,34.38,0,0,1-4.79-10,31.57,31.57,0,0,1,11.07-32.22c1.53-1.21,3.23-2.23,4.86-3.29l19.25-12.45,18.89-12.23a45.46,45.46,0,0,0,5.64-4,27,27,0,0,0,8.73-15.66,26.59,26.59,0,0,0-3.07-17.58c-.89-1.57-1.93-3.06-2.9-4.56l-13.14-20.29q-5.12-7.92-10.24-15.84c-6.18-9.52-17.41-13-28.31-11.35a37.91,37.91,0,0,0-9.34,2.77c-1.53.67-.21,2.9,1.31,2.24,11.3-4.9,26.47-3.89,33.79,7.18,2.82,4.26,5.56,8.58,8.33,12.87l13.74,21.22,3.59,5.56a24,24,0,0,1-1.89,29.16,30.89,30.89,0,0,1-6.77,5.56L358.1,463.13l-20.09,13c-1.32.85-2.65,1.7-4,2.57A33.76,33.76,0,0,0,322.73,491c-5.45,10.2-5.64,23.1.68,33,3.69,5.76,7.43,11.48,11.14,17.22l1.21,1.87.46-1.78L322.75,550a29.88,29.88,0,0,1-10.05,4.55,24.86,24.86,0,0,1-16.16-2.52c-5.54-2.79-10.05-7-14.38-11.33a97.92,97.92,0,0,1-10.11-11.61,94.67,94.67,0,0,1-13.23-27.27c-3.21-10.13-1.66-21.19,5.24-29.44,3-3.64,6.81-6.22,10.73-8.76l30.54-19.76,25.4-16.43.42-.27a1.32,1.32,0,0,0,.46-1.78l-3.44-5.32a1.31,1.31,0,0,0-1.77-.46l-14.58,9.43-23.24,15-5.35,3.47L285,448,274.69,432.1l-1.46,1.9h0a1.31,1.31,0,0,0,1.46-1.9c-2.34-3.65-4.66-7.66-5.16-12.05s1.05-8.39,3.4-12c3.57-5.43,8.58-9.91,13.53-14.06A158.91,158.91,0,0,1,303,382a165,165,0,0,1,21.88-11.76C326.41,369.54,325.09,367.3,323.58,368Z"></path> <path d="M295.24,424.72a8.43,8.43,0,0,1-9.6-.25,8.22,8.22,0,0,1-2.76-9.1,8.51,8.51,0,0,1,7.71-5.72,8.22,8.22,0,0,1,7.9,5.13,8.39,8.39,0,0,1-3.25,9.94c-1.38.92-.08,3.17,1.31,2.25a11.1,11.1,0,0,0,4.84-11.52,10.79,10.79,0,0,0-9.31-8.32,11.07,11.07,0,0,0-11,6,10.88,10.88,0,0,0,1.8,12.35A11,11,0,0,0,296.55,427C298,426.08,296.66,423.83,295.24,424.72Z"></path> <path class="cls-11" d="M435.43,391.42c-10.93-10.1-22.75-15.39-35.32-7.26l-16.18,10.47,12,18.57c9.31,14.4,4.56,34.71-9.82,44L343,485.14c-11.82,7.65-15.25,23.75-7.84,35.21l25.77,39.82c7.33,11.33,21.8,11.39,35.32,7.26,16.19-5,29.77-12.75,43.16-27.93,8.9-10.09,15.65-23.13,7.84-35.2h0l-10.3-15.93L393.77,516.3,390.33,511l64.74-41.9c12.55-8.12,11.72-19.65,7.85-35.2C459,417.87,450.62,405.43,435.43,391.42ZM424.91,511.21A9.49,9.49,0,1,1,422,524.4,9.54,9.54,0,0,1,424.91,511.21Z"></path> <path d="M436.35,390.5c-8.18-7.51-19-14.21-30.43-10.56a35.75,35.75,0,0,0-8.54,4.44l-8.09,5.23-6,3.9a1.31,1.31,0,0,0-.46,1.78c4,6.18,8,12.36,12,18.56,8,12.47,5.17,29.62-5.71,39.45a53,53,0,0,1-6.95,4.94l-10.75,7-25,16.15c-2,1.33-4.17,2.58-6.09,4.08a27.42,27.42,0,0,0-10.25,18.64,26.3,26.3,0,0,0,4.07,17.16c1.52,2.37,3.06,4.73,4.58,7.09L355.37,554c1.45,2.24,2.89,4.48,4.34,6.71a22.79,22.79,0,0,0,15.53,10c8,1.37,16.1-.31,23.68-2.8a92.89,92.89,0,0,0,21.86-10.33,96.89,96.89,0,0,0,20.08-17.83c5.72-6.63,11-14.83,11.1-23.88a22.21,22.21,0,0,0-3.61-12.25l-2,1.57h0a1.3,1.3,0,0,0,2-1.57l-10.31-15.93a1.33,1.33,0,0,0-1.78-.47l-14.57,9.43-23.23,15-5.35,3.46,1.77.47-3.44-5.32-.46,1.78,14.35-9.29,28.44-18.41,20.61-13.34a29.07,29.07,0,0,0,8.7-7.82c4.23-6.19,4.09-13.92,2.93-21a82.9,82.9,0,0,0-7.77-24.53A90.87,90.87,0,0,0,442,396c-1.84-1.87-3.73-3.68-5.65-5.46-1.22-1.13-3.06.7-1.84,1.84,7,6.43,13.51,13.4,18.55,21.46a75.35,75.35,0,0,1,9.3,23.3c1.6,7,3.17,15.2.06,22-1.85,4.09-5.14,7-8.83,9.36l-18.75,12.13-28.16,18.22c-5.58,3.61-11.23,7.13-16.75,10.84l-.25.17a1.31,1.31,0,0,0-.47,1.77l3.44,5.32a1.31,1.31,0,0,0,1.78.46L409,508l23.23-15,5.35-3.47-1.77-.46L446.11,505l2-1.58h0a1.31,1.31,0,0,0-2,1.58,20,20,0,0,1,3.17,12.69A30.09,30.09,0,0,1,444.84,530c-4.62,7.76-11.36,14.52-18.32,20.22a84.46,84.46,0,0,1-20.8,12.46c-7.38,3.08-15.33,5.69-23.38,6-7.29.24-14.76-1.78-19.38-7.78-1.42-1.85-2.61-3.92-3.88-5.88L343,530.11l-5.89-9.1a25.85,25.85,0,0,1-4.48-11.87,25,25,0,0,1,6.88-19.48,38.2,38.2,0,0,1,7-5.28l23.65-15.31c5.53-3.58,11.07-7.13,16.59-10.74a34.34,34.34,0,0,0,14.1-37.22c-1.23-4.48-3.61-8.24-6.1-12.08l-8-12.42-1.7-2.63-.47,1.77,12.65-8.19c1.92-1.24,3.83-2.58,5.86-3.64a20.67,20.67,0,0,1,15.13-1.67c6.24,1.71,11.6,5.78,16.29,10.09C435.74,393.46,437.58,391.63,436.35,390.5Z"></path> <path d="M425.57,512.33a8.43,8.43,0,0,1,9.6.25,8.22,8.22,0,0,1,2.76,9.1,8.5,8.5,0,0,1-7.71,5.72,8.22,8.22,0,0,1-7.9-5.13,8.39,8.39,0,0,1,3.25-9.94c1.38-.92.08-3.17-1.31-2.24a11.09,11.09,0,0,0-4.84,11.52,10.79,10.79,0,0,0,9.31,8.31,11.08,11.08,0,0,0,11-6A10.87,10.87,0,0,0,438,511.61a11,11,0,0,0-13.7-1.52C422.85,511,424.15,513.22,425.57,512.33Z"></path> <path d="M379.27,716.83c8.54-20.6,17.08-41.21,26.26-61.54q6.86-15.19,14.26-30.15c4.72-9.48,9.51-19,14.95-28.09,4.89-8.17,10.69-16.19,18.59-21.72,7.17-5,16.46-8,25.22-6.44A22.14,22.14,0,0,1,489.68,574a20.77,20.77,0,0,1,5.63,8.64c2.18,6.3,1.72,14.06-3.35,18.88-5.41,5.15-15.93,5.18-19.53-2.13-1.86-3.78-1.26-8.53.8-12.09,1.64-2.83,4.85-5,8.26-4.63a3,3,0,0,1,2.71,2.09c.51,1.58,3,.9,2.51-.69-1.16-3.6-4.86-4.52-8.24-3.74a12.2,12.2,0,0,0-8.43,7.6,15.4,15.4,0,0,0,.49,13.4,13.3,13.3,0,0,0,10.21,6.34,16.49,16.49,0,0,0,17.73-12.41A24.09,24.09,0,0,0,493,573.62c-6.17-6.9-16.18-8.66-24.95-7.17-10,1.69-18.57,7.46-25.23,14.9-7.15,8-12.27,17.5-17.27,26.9Q417,624.36,409.3,640.9c-10.31,22-19.73,44.38-29,66.81l-3.5,8.43c-.64,1.54,1.88,2.21,2.51.69Z"></path> <path d="M310.55,714.15c3.33-26.73-2.57-53.46-10.05-79-3.32-11.33-6.82-22.63-10.65-33.8A262.85,262.85,0,0,0,278.05,572c-8.82-18.21-21.14-35.31-38.83-45.76-5-2.93-10.59-5.28-16.43-5.49a18.33,18.33,0,0,0-14.27,5.84,30.81,30.81,0,0,0-6.67,13.2c-1.5,5.7-2.21,11.86-1,17.69a19.85,19.85,0,0,0,8.74,12.91,14.37,14.37,0,0,0,14.45.57,23.56,23.56,0,0,0,10.32-12c.93-2.41,1.29-5.35,0-7.72a6.64,6.64,0,0,0-4.94-3.24,4.84,4.84,0,0,0-4.91,2.21,1.3,1.3,0,0,0,2.24,1.31c.92-1.51,3.08-1.06,4.3-.17,2.06,1.5,1.71,4.42,1,6.53a20.53,20.53,0,0,1-9.6,11,12.07,12.07,0,0,1-13.3-2c-4-3.43-5.9-8.42-6.22-13.6a41.27,41.27,0,0,1,2.42-16c1.5-4.28,3.9-8.58,7.69-11.22,9.18-6.37,20.9-.48,28.93,5,15.67,10.64,26.51,26.74,34.52,43.62,8.74,18.44,14.67,38.19,20.5,57.7,7.05,23.55,13.07,48,11.8,72.74-.16,3-.43,6-.8,9-.21,1.65,2.39,1.64,2.59,0Z"></path> <path d="M228.23,491.12c-8-3.74-17.17-3.84-25.61-1.44S186.6,497,180,502.74A143.45,143.45,0,0,0,169,513.46c-1.14,1.22.69,3,1.83,1.83,11.26-12.06,24.94-24.28,42.39-24.65a30.71,30.71,0,0,1,13.66,2.72c1.5.7,2.82-1.54,1.31-2.24Z"></path> <path d="M232.19,448.43a38.53,38.53,0,0,0-26.86-15.32c-1.66-.17-1.65,2.43,0,2.6a35.66,35.66,0,0,1,24.62,14c1,1.33,3.24,0,2.24-1.31Z"></path> <path d="M486.81,523a33.66,33.66,0,0,1,24.33,3.61,1.3,1.3,0,0,0,1.31-2.25,36.44,36.44,0,0,0-26.33-3.86c-1.63.37-.94,2.88.69,2.5Z"></path> <path d="M488.46,491.72a47.4,47.4,0,0,1,23.19-4c1.67.13,1.66-2.46,0-2.59a50,50,0,0,0-24.5,4.37c-1.52.69-.2,2.93,1.31,2.24Z"></path> <path d="M228.34,380c-1.8,2.9.2,6.32,3,7.7,3.24,1.62,6.69.37,8.86-2.38A16.32,16.32,0,0,0,243.39,375a6.72,6.72,0,0,0-2.23-5,7,7,0,0,0-4.76-1.5c-4.61.2-7.57,4-9.75,7.63a1.3,1.3,0,0,0,2.24,1.31c1.42-2.37,3.21-5.19,6-6.07,2.41-.75,5.19,0,5.79,2.71a10.68,10.68,0,0,1-.24,4.39,14.64,14.64,0,0,1-1.29,3.7c-1,1.91-3,4.1-5.35,3.7-1.9-.32-4.51-2.45-3.22-4.53.89-1.42-1.35-2.72-2.24-1.31Z"></path> <path d="M143.31,446.94l.09-.13c.09-.15-.15.16,0,0l.2-.21a1.81,1.81,0,0,1,.24-.24l.11-.09c.11-.12-.18.11,0,0s.34-.23.53-.33l.3-.14c.12-.07-.08,0-.09,0l.18-.06a3.69,3.69,0,0,1,.65-.18l.29-.06c-.28.07,0,0,.14,0a4.56,4.56,0,0,1,.64,0l.29,0H147c-.32,0-.08,0,0,0a6.21,6.21,0,0,1,.62.14l.28.09.18.07c-.08,0-.18-.09,0,0a5.77,5.77,0,0,1,.55.29l.28.19c.18.12-.14-.13.07.07a6.09,6.09,0,0,1,.44.44c0,.05.13.19,0,0l.08.12c.06.1.13.19.18.29s.11.21.17.32,0-.05,0-.07a1.59,1.59,0,0,0,.07.2c0,.1.06.2.08.3s.07.46,0,.17a4.93,4.93,0,0,1,0,.67c0,.1,0,.21,0,.31s0-.07,0-.09,0,.17,0,.26a4,4,0,0,1-.18.66,2.49,2.49,0,0,1-.11.29c.11-.27-.06.11-.09.17a6,6,0,0,1-.36.6c0,.06-.26.33-.08.12l-.24.28c-.16.17-.33.32-.5.47s-.19.15,0,0l-.13.09-.3.2-.32.18c-.08,0-.39.14-.12.06-.23.07-.45.15-.69.2s-.29,0-.07,0l-.37,0H146l-.16,0c.3,0,.08,0,0,0a6.48,6.48,0,0,1-.63-.17c-.23-.07.16.09,0,0l-.36-.19-.25-.16-.16-.12.06,0c-.17-.16-.35-.31-.51-.48l-.26-.3c-.1-.11,0,.05,0,.06s-.08-.11-.11-.17a4.92,4.92,0,0,1-.41-.7c0-.05,0-.1-.07-.14s.07.2,0,0-.1-.26-.14-.39-.13-.48-.18-.73c0,0,0-.2,0,0s0-.09,0-.13,0-.23,0-.35,0-.26,0-.4,0-.09,0-.14c0,.16,0,.16,0,0s.12-.48.19-.72c0,0,.08-.18,0,0l0-.08.23-.39a1.3,1.3,0,1,0-2.24-1.31c-2.85,4.47,1.9,11.31,7.13,9.29a6.9,6.9,0,0,0,4.32-6.08,5.71,5.71,0,0,0-4.16-5.57,6.49,6.49,0,0,0-7.29,2.36,1.3,1.3,0,0,0,2.24,1.31Z"></path> <path d="M158.22,357a187.91,187.91,0,0,1-8,26.79c-.59,1.57,1.92,2.24,2.51.69a189.22,189.22,0,0,0,8-26.79c.35-1.62-2.15-2.32-2.51-.69Z"></path> <path d="M145,362.51a61.7,61.7,0,0,0,28.19,11.82c1.64.24,2.34-2.26.69-2.51a60,60,0,0,1-27.57-11.55c-1.33-1-2.62,1.24-1.31,2.24Z"></path> <path d="M265.48,311.78c5.41-4.65,14.73-3.69,19.08,2s2.66,14.69-3,18.73a5.94,5.94,0,0,1-4.47,1.27c-1.77-.28-2.41-1.34-1.09-2.77,3-3.24,7.14-6.39,11.48-7.34,7.77-1.7,13,5.84,12.68,12.9-.44,9.55-10.61,15-18.93,16.5-1.64.29-.95,2.79.69,2.5,9.25-1.64,19.56-7.73,20.75-17.93,1-8.7-5.48-18.06-14.91-16.65a18.47,18.47,0,0,0-7.31,3,31.28,31.28,0,0,0-6.55,5.47c-1.39,1.6-1.85,3.91-.22,5.51a6.5,6.5,0,0,0,5.4,1.37c4.14-.57,7.46-4.46,9-8.09a16.6,16.6,0,0,0,.44-12.61c-3.82-9.67-17.19-12.27-24.89-5.66-1.27,1.09.57,2.92,1.83,1.84Z"></path> <path d="M381.12,361.66c-4.83-5.49-8.28-14.27-5.71-21.52,1.23-3.47,4.31-5.62,8-4.85,3.9.8,7.21,3.7,9.47,6.87,2.11,2.93,4.07,6.95,4,10.65a5.49,5.49,0,0,1-1.35,3.8c-1.25,1.13-2.69-.3-3.58-1.23-4.76-5-4.73-13.22-1.8-19.15,1.75-3.54,4.76-7,8.8-7.85,3.49-.7,8.35,2.08,7.61,6.12h2.5c-2.38-7.61.86-16.3,7.16-21,6.66-5,15.66-4.18,22.1.8a18.73,18.73,0,0,1,7.05,11.26c.3,1.64,2.81.94,2.5-.69-1.7-9-9.88-16-18.85-17.22-9.24-1.23-17.75,4.42-21.42,12.79a21.15,21.15,0,0,0-1,14.79c.35,1.14,2.26,1.34,2.5,0,.8-4.36-2.5-8.24-6.63-9.27-4.54-1.13-9,1.54-11.86,4.93-5.39,6.48-7,16.83-2.22,24.12,1.1,1.69,2.66,3.6,4.59,4.35a4.16,4.16,0,0,0,4.86-1.37c2.71-3.4,1.63-8.27.16-11.93a23.68,23.68,0,0,0-9.11-11.27c-4-2.49-9.24-3.29-13,0s-4.23,8.85-3.62,13.41a29,29,0,0,0,7,15.3c1.11,1.25,2.94-.59,1.84-1.84Z"></path> <path d="M499.71,357a117.15,117.15,0,0,1-20.53,23.35,1.32,1.32,0,0,0,0,1.84,39,39,0,0,0,10.22,7.49,1.32,1.32,0,0,0,1.91-.77,62.78,62.78,0,0,1,21.14-26.81,1.31,1.31,0,0,0-.66-2.42,23.19,23.19,0,0,1-12.15-4.78c-1.32-1-2.62,1.24-1.31,2.24a25.59,25.59,0,0,0,13.46,5.14l-.65-2.42a66,66,0,0,0-22.33,28.36l1.9-.78a36.75,36.75,0,0,1-9.7-7.09v1.84A119.75,119.75,0,0,0,502,358.27c.93-1.4-1.32-2.7-2.24-1.31Z"></path> <path d="M124.35,562.39l6.44,10.41a1.31,1.31,0,0,0,2.24,0c2.81-6.27,8.28-10.53,13.65-14.54,2.72-2,5.46-4,8-6.26,1.26-1.1,2.87-2.28,2.15-4.14a15.7,15.7,0,0,0-1.69-2.73l-1.89-2.9a1.33,1.33,0,0,0-2-.26,157.19,157.19,0,0,1-26.66,17c-1.49.75-.18,3,1.31,2.24a160.71,160.71,0,0,0,27.19-17.43l-2-.27,1.89,2.9.81,1.24c.07.11.76,1,.73,1.15a10.29,10.29,0,0,1-.91.73c-.31.28-.63.57-1,.85-.56.48-1.13,1-1.7,1.42-2.52,2-5.16,3.9-7.73,5.87-5,3.78-9.76,8-12.36,13.79H133l-6.44-10.41c-.88-1.42-3.12-.12-2.24,1.31Z"></path> <path d="M497.76,443.3a13.36,13.36,0,0,0,1,6.22,5.07,5.07,0,0,0,5.5,2.86,5.42,5.42,0,0,0,4.35-4.78,6.16,6.16,0,0,0-3.31-5.82,7.19,7.19,0,0,0-8,1.31,1.29,1.29,0,1,0,1.83,1.83,3.88,3.88,0,0,1,.31-.26c-.13.1.05,0,.06,0,.19-.13.38-.25.58-.36a4.35,4.35,0,0,1,1.21-.46l.39-.08s.26,0,.06,0c.22,0,.45,0,.67,0l.41,0h.05a5.22,5.22,0,0,1,.78.19,3.71,3.71,0,0,1,.94.51c-.17-.13,0,0,.08.07l.23.21c.07.08.15.15.21.23l.13.14c-.07-.1-.07-.09,0,0a4.79,4.79,0,0,1,.34.53l.11.22c.18.34-.06-.21.06.15a4.11,4.11,0,0,1,.17.6,2,2,0,0,1,.05.24c0-.27,0,.22,0,.27v.24s-.06.43,0,.15a4.25,4.25,0,0,1-.15.59s-.09.23,0,0a3,3,0,0,1-.16.31l-.12.2-.13.19c.07-.09.08-.11,0,0a4.27,4.27,0,0,1-.36.38s-.32.26-.1.09l-.19.14c-.16.1-.33.19-.5.28s.22,0-.12.05l-.33.11-.33.07H503c-.35,0,.22.08-.11,0a1.8,1.8,0,0,0-.22-.06s-.39-.14-.12,0a1.77,1.77,0,0,1-.31-.15c-.06,0-.49-.33-.27-.16a4.48,4.48,0,0,1-.4-.36c-.06-.07-.11-.14-.17-.2s.15.25,0,0-.23-.37-.33-.56a1.24,1.24,0,0,0-.1-.2h0l-.08-.21a6.17,6.17,0,0,1-.19-.61q-.09-.32-.15-.63c0-.12-.05-.23-.06-.35s-.06-.42,0-.13a18.5,18.5,0,0,1-.11-2.88,1.3,1.3,0,0,0-2.6,0Z"></path> <path d="M515.46,415.76l-1.65,9.16a1.32,1.32,0,0,0,1.25,1.64,285.28,285.28,0,0,1,31.88,1.75c1,.11,1.55-1.17,1.13-1.95a20.81,20.81,0,0,1-2.34-12.69,1.29,1.29,0,0,0-1.3-1.29,229.46,229.46,0,0,1-28.6,1.07,1.3,1.3,0,0,0,0,2.6,227.56,227.56,0,0,0,28.6-1.08l-1.3-1.3a23.27,23.27,0,0,0,2.69,14l1.12-2A287.68,287.68,0,0,0,515.06,424l1.25,1.65,1.65-9.16c.29-1.63-2.21-2.33-2.5-.69Z"></path> <path d="M161.44,600c2.13-5.57,7.22-9.47,12.8-11.19,6.4-2,13.25-1,19.3,1.72,12.26,5.44,21.89,16.5,27.53,28.47a62.1,62.1,0,0,1,5.72,21.29c.14,1.65,2.73,1.67,2.6,0a66.07,66.07,0,0,0-16.57-38.41c-9.3-10.38-23.75-19.68-38.24-15.87-6.93,1.82-13.05,6.51-15.64,13.3-.6,1.56,1.91,2.24,2.5.69Z"></path> <path d="M327.19,568.58a88.24,88.24,0,0,1,11.2,46.08c-.05,1.67,2.54,1.67,2.6,0a90.87,90.87,0,0,0-11.56-47.39c-.81-1.46-3.06-.15-2.24,1.31Z"></path> <path d="M353.24,622.93a78.61,78.61,0,0,1,16.44-37.37c1-1.29-.79-3.14-1.84-1.84a81.11,81.11,0,0,0-17.1,38.52c-.25,1.63,2.25,2.34,2.5.69Z"></path> <path d="M544.79,92.38a78.75,78.75,0,0,0,25.89,33c1.61,1.19,4-.42,3.91-2.24q-.29-11.41.27-22.83l-4.43,1.84,14.51,15.2a2.62,2.62,0,0,0,3.68,0c5.1-6.06,1.8-14.77.27-21.57l-5.77-25.52c-.73-3.26-5.74-1.88-5,1.38l5.33,23.59c.81,3.61,1.75,7.22,2.41,10.87.43,2.4.78,5.57-.92,7.58h3.68L574.1,98.46c-1.62-1.7-4.33-.33-4.43,1.83q-.55,11.42-.27,22.83l3.9-2.24A72.18,72.18,0,0,1,549.8,91a2.68,2.68,0,0,0-3.19-1.81c-1.22.33-2.36,1.89-1.82,3.19Z"></path> <path d="M663.78,55.84c-3.69,10-5.57,21-3.28,31.49,1,4.76,2.86,10.16,7,13.12s9.9,2,14.11-.5c8.32-4.83,13.08-14.33,15.1-23.42,2.22-9.92,1.49-21.48-7.31-28C681,42.21,668.65,46.38,665.05,56a2.63,2.63,0,0,0,1.81,3.2,2.66,2.66,0,0,0,3.2-1.82c2.28-6.1,10.16-8.51,15.51-5.25,7.23,4.41,7.88,14,6.44,21.51-1.47,7.64-4.71,15.48-11,20.43-2.53,2-6.54,4.06-9.79,2.57s-4.67-6.35-5.49-9.64c-2.46-9.92-.45-20.39,3-29.8A2.62,2.62,0,0,0,667,54a2.65,2.65,0,0,0-3.19,1.82Z"></path> <path d="M765.82,72.87a209.14,209.14,0,0,0-6,41.34c-.1,2.36,2.85,3.29,4.43,1.84l16.65-15.33-2.53.67s-.76-.5-.68-.57,0,.45.08.25a12.55,12.55,0,0,0,0,1.38,26,26,0,0,1-.61,3.26c-.54,2.28-1.27,4.52-2,6.76-1.41,4.63-2.42,9.25-1.74,14.1.2,1.45,2,2.07,3.19,1.81,3.3-.68,6-2.71,8.48-4.89,2.86-2.51,5.64-5.09,8.46-7.64L811,100.11c2.48-2.25-1.2-5.91-3.67-3.67l-16.66,15.07q-4.07,3.69-8.14,7.37c-2.14,1.94-4.33,3.89-7.24,4.5l3.19,1.81c-.68-5,1.36-10,2.75-14.61a45.16,45.16,0,0,0,1.7-7.71c.33-2.78-.33-5.36-3.11-6.48a2.56,2.56,0,0,0-2.52.66l-16.65,15.33,4.43,1.83a202.72,202.72,0,0,1,5.77-40c.81-3.25-4.2-4.63-5-1.38Z"></path> </g> </svg> 